%FSLAX45Y45*%
G04 Gerber Fmt 4.5, Leading zero omitted, Abs format (unit mm)*
G04 Created by KiCad (PCBNEW (6.0.1)) date 2022-05-27 18:48:14*
%MOMM*%
%LPD*%
G01*
G04 APERTURE LIST*
%TA.AperFunction,Profile*%
%ADD10C,0.050000*%
%TD*%
%ADD11C,0.200000*%
G04 APERTURE END LIST*
D10*
X5550000Y5600000D02*
X6000000Y5600000D01*
X850000Y5600000D02*
X850000Y4850000D01*
X850000Y4850000D02*
G75*
G03*
X1550000Y4850000I350000J0D01*
G01*
X400000Y5600000D02*
X850000Y5600000D01*
X300000Y2050000D02*
G75*
G03*
X400000Y2150000I0J100000D01*
G01*
X6000000Y5600000D02*
X6000000Y2150000D01*
X6400000Y2050000D02*
X6100000Y2050000D01*
X6400000Y2050000D02*
X6400000Y450000D01*
X2500000Y1500000D02*
X3900000Y1500000D01*
X5550000Y4850000D02*
X5550000Y5600000D01*
X4300000Y2050000D02*
G75*
G03*
X4400000Y2150000I0J100000D01*
G01*
X4400000Y5600000D02*
X4850000Y5600000D01*
X2000000Y2150000D02*
G75*
G03*
X2100000Y2050000I100000J0D01*
G01*
X3900000Y1500000D02*
G75*
G03*
X4000000Y1600000I0J100000D01*
G01*
X2400000Y2050000D02*
X2400000Y1600000D01*
X4000000Y1600000D02*
X4000000Y2050000D01*
X0Y2050000D02*
X0Y450000D01*
X4400000Y2150000D02*
X4400000Y5600000D01*
X1550000Y5600000D02*
X2000000Y5600000D01*
X400000Y5600000D02*
X400000Y2150000D01*
X1550000Y4850000D02*
X1550000Y5600000D01*
X2000000Y5600000D02*
X2000000Y2150000D01*
X6000000Y2150000D02*
G75*
G03*
X6100000Y2050000I100000J0D01*
G01*
X300000Y2050000D02*
X0Y2050000D01*
X2400000Y1600000D02*
G75*
G03*
X2500000Y1500000I100000J0D01*
G01*
X5950000Y0D02*
X450000Y0D01*
X5950000Y0D02*
G75*
G03*
X6400000Y450000I0J450000D01*
G01*
X4850000Y5600000D02*
X4850000Y4850000D01*
X0Y450000D02*
G75*
G03*
X450000Y0I450000J0D01*
G01*
X2400000Y2050000D02*
X2100000Y2050000D01*
X4850000Y4850000D02*
G75*
G03*
X5550000Y4850000I350000J0D01*
G01*
X4300000Y2050000D02*
X4000000Y2050000D01*
D11*
X255119Y-312976D02*
X255119Y-112976D01*
X302738Y-112976D01*
X331310Y-122500D01*
X350357Y-141548D01*
X359881Y-160595D01*
X369405Y-198690D01*
X369405Y-227262D01*
X359881Y-265357D01*
X350357Y-284405D01*
X331310Y-303452D01*
X302738Y-312976D01*
X255119Y-312976D01*
X455119Y-312976D02*
X455119Y-179643D01*
X455119Y-217738D02*
X464643Y-198690D01*
X474167Y-189167D01*
X493214Y-179643D01*
X512262Y-179643D01*
X578929Y-312976D02*
X578929Y-179643D01*
X578929Y-112976D02*
X569405Y-122500D01*
X578929Y-132024D01*
X588452Y-122500D01*
X578929Y-112976D01*
X578929Y-132024D01*
X702738Y-312976D02*
X683690Y-303452D01*
X674167Y-284405D01*
X674167Y-112976D01*
X807500Y-312976D02*
X788452Y-303452D01*
X778928Y-284405D01*
X778928Y-112976D01*
X1036071Y-312976D02*
X1036071Y-112976D01*
X1102738Y-255833D01*
X1169405Y-112976D01*
X1169405Y-312976D01*
X1350357Y-312976D02*
X1350357Y-208214D01*
X1340833Y-189167D01*
X1321786Y-179643D01*
X1283690Y-179643D01*
X1264643Y-189167D01*
X1350357Y-303452D02*
X1331310Y-312976D01*
X1283690Y-312976D01*
X1264643Y-303452D01*
X1255119Y-284405D01*
X1255119Y-265357D01*
X1264643Y-246309D01*
X1283690Y-236786D01*
X1331310Y-236786D01*
X1350357Y-227262D01*
X1445595Y-179643D02*
X1445595Y-379643D01*
X1445595Y-189167D02*
X1464643Y-179643D01*
X1502738Y-179643D01*
X1521786Y-189167D01*
X1531309Y-198690D01*
X1540833Y-217738D01*
X1540833Y-274881D01*
X1531309Y-293929D01*
X1521786Y-303452D01*
X1502738Y-312976D01*
X1464643Y-312976D01*
X1445595Y-303452D01*
X1626548Y-293929D02*
X1636071Y-303452D01*
X1626548Y-312976D01*
X1617024Y-303452D01*
X1626548Y-293929D01*
X1626548Y-312976D01*
X1626548Y-189167D02*
X1636071Y-198690D01*
X1626548Y-208214D01*
X1617024Y-198690D01*
X1626548Y-189167D01*
X1626548Y-208214D01*
M02*
