M48
; DRILL file {KiCad (6.0.1)} date Fri May 27 18:48:13 2022
; FORMAT={-:-/ absolute / metric / decimal}
; #@! TF.CreationDate,2022-05-27T18:48:13+01:00
; #@! TF.GenerationSoftware,Kicad,Pcbnew,(6.0.1)
; #@! TF.FileFunction,Plated,1,2,PTH
FMAT,2
METRIC
; #@! TA.AperFunction,Plated,PTH,ViaDrill
T1C0.500
; #@! TA.AperFunction,Plated,PTH,ComponentDrill
T2C1.200
; #@! TA.AperFunction,Plated,PTH,ComponentDrill
T3C2.200
%
G90
G05
T1
X5.0Y55.0
X5.0Y52.5
X5.0Y50.0
X5.0Y47.5
X6.25Y14.5
X6.25Y12.0
X6.3Y44.4
X7.5Y55.0
X7.5Y52.5
X7.5Y50.0
X7.5Y47.5
X8.75Y14.5
X8.75Y12.0
X8.9Y42.2
X9.2Y45.0
X10.75Y19.0
X10.75Y16.5
X10.75Y10.0
X10.75Y7.5
X12.0Y44.0
X12.0Y41.5
X13.25Y19.0
X13.25Y16.5
X13.25Y10.0
X13.25Y7.5
X14.8Y45.0
X15.1Y42.2
X15.25Y14.5
X15.25Y12.0
X16.5Y55.0
X16.5Y52.5
X16.5Y50.0
X16.5Y47.5
X17.7Y44.4
X17.75Y14.5
X17.75Y12.0
X19.0Y55.0
X19.0Y52.5
X19.0Y50.0
X19.0Y47.5
X45.0Y55.0
X45.0Y52.5
X45.0Y50.0
X45.0Y47.5
X46.25Y14.5
X46.25Y12.0
X46.3Y44.4
X47.5Y55.0
X47.5Y52.5
X47.5Y50.0
X47.5Y47.5
X48.75Y14.5
X48.75Y12.0
X48.9Y42.2
X49.2Y45.0
X50.75Y19.0
X50.75Y16.5
X50.75Y10.0
X50.75Y7.5
X52.0Y44.0
X52.0Y41.5
X53.25Y19.0
X53.25Y16.5
X53.25Y10.0
X53.25Y7.5
X54.8Y45.0
X55.1Y42.2
X55.25Y14.5
X55.25Y12.0
X56.5Y55.0
X56.5Y52.5
X56.5Y50.0
X56.5Y47.5
X57.7Y44.4
X57.75Y14.5
X57.75Y12.0
X59.0Y55.0
X59.0Y52.5
X59.0Y50.0
X59.0Y47.5
T3
X12.0Y13.2
X52.0Y13.2
T2
G00X6.92Y17.0
M15
G01X7.62Y17.0
M16
G05
G00X6.92Y6.84
M15
G01X7.62Y6.84
M16
G05
G00X16.38Y17.0
M15
G01X17.08Y17.0
M16
G05
G00X16.38Y6.84
M15
G01X17.08Y6.84
M16
G05
G00X46.92Y17.0
M15
G01X47.62Y17.0
M16
G05
G00X46.92Y6.84
M15
G01X47.62Y6.84
M16
G05
G00X56.38Y17.0
M15
G01X57.08Y17.0
M16
G05
G00X56.38Y6.84
M15
G01X57.08Y6.84
M16
G05
T0
M30
