%TF.GenerationSoftware,KiCad,Pcbnew,(6.0.1)*%
%TF.CreationDate,2022-05-27T18:48:01+01:00*%
%TF.ProjectId,pt130a_dc-load-banana-plug-adapter,70743133-3061-45f6-9463-2d6c6f61642d,1.0*%
%TF.SameCoordinates,PX53724e0PY7641700*%
%TF.FileFunction,Legend,Bot*%
%TF.FilePolarity,Positive*%
%FSLAX46Y46*%
G04 Gerber Fmt 4.6, Leading zero omitted, Abs format (unit mm)*
G04 Created by KiCad (PCBNEW (6.0.1)) date 2022-05-27 18:48:01*
%MOMM*%
%LPD*%
G01*
G04 APERTURE LIST*
%ADD10C,0.100000*%
%ADD11C,0.150000*%
%ADD12C,0.300000*%
%ADD13C,0.400000*%
%ADD14C,0.360000*%
%TA.AperFunction,Profile*%
%ADD15C,0.050000*%
%TD*%
%ADD16C,0.250000*%
G04 APERTURE END LIST*
D10*
D11*
X89502200Y-43007200D02*
X89502200Y-74007200D01*
X197502200Y-74007200D01*
X197502200Y-43007200D01*
X89502200Y-43007200D01*
D10*
D11*
X-77500000Y114000000D02*
X-77500000Y-76007200D01*
X199502200Y-76007200D01*
X199502200Y114000000D01*
X-77500000Y114000000D01*
D10*
D11*
X-75500000Y112000000D02*
X-75500000Y-74007200D01*
X197502200Y-74007200D01*
X197502200Y112000000D01*
X-75500000Y112000000D01*
D10*
D11*
X-27500000Y112000000D02*
X-27500000Y114000000D01*
D10*
D11*
X22500000Y112000000D02*
X22500000Y114000000D01*
D10*
D11*
X72500000Y112000000D02*
X72500000Y114000000D01*
D10*
D11*
X122500000Y112000000D02*
X122500000Y114000000D01*
D10*
D11*
X172500000Y112000000D02*
X172500000Y114000000D01*
D10*
D11*
X-51434524Y112411905D02*
X-52177381Y112411905D01*
X-51805953Y112411905D02*
X-51805953Y113711905D01*
X-51929762Y113526191D01*
X-52053572Y113402381D01*
X-52177381Y113340477D01*
D10*
D11*
X-2177381Y113588096D02*
X-2115477Y113650000D01*
X-1991667Y113711905D01*
X-1682143Y113711905D01*
X-1558334Y113650000D01*
X-1496429Y113588096D01*
X-1434524Y113464286D01*
X-1434524Y113340477D01*
X-1496429Y113154762D01*
X-2239286Y112411905D01*
X-1434524Y112411905D01*
D10*
D11*
X47760714Y113711905D02*
X48565476Y113711905D01*
X48132142Y113216667D01*
X48317857Y113216667D01*
X48441666Y113154762D01*
X48503571Y113092858D01*
X48565476Y112969048D01*
X48565476Y112659524D01*
X48503571Y112535715D01*
X48441666Y112473810D01*
X48317857Y112411905D01*
X47946428Y112411905D01*
X47822619Y112473810D01*
X47760714Y112535715D01*
D10*
D11*
X98441666Y113278572D02*
X98441666Y112411905D01*
X98132142Y113773810D02*
X97822619Y112845239D01*
X98627380Y112845239D01*
D10*
D11*
X148503571Y113711905D02*
X147884523Y113711905D01*
X147822619Y113092858D01*
X147884523Y113154762D01*
X148008333Y113216667D01*
X148317857Y113216667D01*
X148441666Y113154762D01*
X148503571Y113092858D01*
X148565476Y112969048D01*
X148565476Y112659524D01*
X148503571Y112535715D01*
X148441666Y112473810D01*
X148317857Y112411905D01*
X148008333Y112411905D01*
X147884523Y112473810D01*
X147822619Y112535715D01*
D10*
D11*
X198441666Y113711905D02*
X198194047Y113711905D01*
X198070238Y113650000D01*
X198008333Y113588096D01*
X197884523Y113402381D01*
X197822619Y113154762D01*
X197822619Y112659524D01*
X197884523Y112535715D01*
X197946428Y112473810D01*
X198070238Y112411905D01*
X198317857Y112411905D01*
X198441666Y112473810D01*
X198503571Y112535715D01*
X198565476Y112659524D01*
X198565476Y112969048D01*
X198503571Y113092858D01*
X198441666Y113154762D01*
X198317857Y113216667D01*
X198070238Y113216667D01*
X197946428Y113154762D01*
X197884523Y113092858D01*
X197822619Y112969048D01*
D10*
D11*
X-27500000Y-74007200D02*
X-27500000Y-76007200D01*
D10*
D11*
X22500000Y-74007200D02*
X22500000Y-76007200D01*
D10*
D11*
X72500000Y-74007200D02*
X72500000Y-76007200D01*
D10*
D11*
X122500000Y-74007200D02*
X122500000Y-76007200D01*
D10*
D11*
X172500000Y-74007200D02*
X172500000Y-76007200D01*
D10*
D11*
X-51434524Y-75595295D02*
X-52177381Y-75595295D01*
X-51805953Y-75595295D02*
X-51805953Y-74295295D01*
X-51929762Y-74481009D01*
X-52053572Y-74604819D01*
X-52177381Y-74666723D01*
D10*
D11*
X-2177381Y-74419104D02*
X-2115477Y-74357200D01*
X-1991667Y-74295295D01*
X-1682143Y-74295295D01*
X-1558334Y-74357200D01*
X-1496429Y-74419104D01*
X-1434524Y-74542914D01*
X-1434524Y-74666723D01*
X-1496429Y-74852438D01*
X-2239286Y-75595295D01*
X-1434524Y-75595295D01*
D10*
D11*
X47760714Y-74295295D02*
X48565476Y-74295295D01*
X48132142Y-74790533D01*
X48317857Y-74790533D01*
X48441666Y-74852438D01*
X48503571Y-74914342D01*
X48565476Y-75038152D01*
X48565476Y-75347676D01*
X48503571Y-75471485D01*
X48441666Y-75533390D01*
X48317857Y-75595295D01*
X47946428Y-75595295D01*
X47822619Y-75533390D01*
X47760714Y-75471485D01*
D10*
D11*
X98441666Y-74728628D02*
X98441666Y-75595295D01*
X98132142Y-74233390D02*
X97822619Y-75161961D01*
X98627380Y-75161961D01*
D10*
D11*
X148503571Y-74295295D02*
X147884523Y-74295295D01*
X147822619Y-74914342D01*
X147884523Y-74852438D01*
X148008333Y-74790533D01*
X148317857Y-74790533D01*
X148441666Y-74852438D01*
X148503571Y-74914342D01*
X148565476Y-75038152D01*
X148565476Y-75347676D01*
X148503571Y-75471485D01*
X148441666Y-75533390D01*
X148317857Y-75595295D01*
X148008333Y-75595295D01*
X147884523Y-75533390D01*
X147822619Y-75471485D01*
D10*
D11*
X198441666Y-74295295D02*
X198194047Y-74295295D01*
X198070238Y-74357200D01*
X198008333Y-74419104D01*
X197884523Y-74604819D01*
X197822619Y-74852438D01*
X197822619Y-75347676D01*
X197884523Y-75471485D01*
X197946428Y-75533390D01*
X198070238Y-75595295D01*
X198317857Y-75595295D01*
X198441666Y-75533390D01*
X198503571Y-75471485D01*
X198565476Y-75347676D01*
X198565476Y-75038152D01*
X198503571Y-74914342D01*
X198441666Y-74852438D01*
X198317857Y-74790533D01*
X198070238Y-74790533D01*
X197946428Y-74852438D01*
X197884523Y-74914342D01*
X197822619Y-75038152D01*
D10*
D11*
X-77500000Y64000000D02*
X-75500000Y64000000D01*
D10*
D11*
X-77500000Y14000000D02*
X-75500000Y14000000D01*
D10*
D11*
X-77500000Y-36000000D02*
X-75500000Y-36000000D01*
D10*
D11*
X-76809524Y88783334D02*
X-76190477Y88783334D01*
X-76933334Y88411905D02*
X-76500000Y89711905D01*
X-76066667Y88411905D01*
D10*
D11*
X-76407143Y39092858D02*
X-76221429Y39030953D01*
X-76159524Y38969048D01*
X-76097620Y38845239D01*
X-76097620Y38659524D01*
X-76159524Y38535715D01*
X-76221429Y38473810D01*
X-76345239Y38411905D01*
X-76840477Y38411905D01*
X-76840477Y39711905D01*
X-76407143Y39711905D01*
X-76283334Y39650000D01*
X-76221429Y39588096D01*
X-76159524Y39464286D01*
X-76159524Y39340477D01*
X-76221429Y39216667D01*
X-76283334Y39154762D01*
X-76407143Y39092858D01*
X-76840477Y39092858D01*
D10*
D11*
X-76097620Y-11464285D02*
X-76159524Y-11526190D01*
X-76345239Y-11588095D01*
X-76469048Y-11588095D01*
X-76654762Y-11526190D01*
X-76778572Y-11402380D01*
X-76840477Y-11278571D01*
X-76902381Y-11030952D01*
X-76902381Y-10845238D01*
X-76840477Y-10597619D01*
X-76778572Y-10473809D01*
X-76654762Y-10350000D01*
X-76469048Y-10288095D01*
X-76345239Y-10288095D01*
X-76159524Y-10350000D01*
X-76097620Y-10411904D01*
D10*
D11*
X-76840477Y-61588095D02*
X-76840477Y-60288095D01*
X-76530953Y-60288095D01*
X-76345239Y-60350000D01*
X-76221429Y-60473809D01*
X-76159524Y-60597619D01*
X-76097620Y-60845238D01*
X-76097620Y-61030952D01*
X-76159524Y-61278571D01*
X-76221429Y-61402380D01*
X-76345239Y-61526190D01*
X-76530953Y-61588095D01*
X-76840477Y-61588095D01*
D10*
D11*
X199502200Y64000000D02*
X197502200Y64000000D01*
D10*
D11*
X199502200Y14000000D02*
X197502200Y14000000D01*
D10*
D11*
X199502200Y-36000000D02*
X197502200Y-36000000D01*
D10*
D11*
X198192676Y88783334D02*
X198811723Y88783334D01*
X198068866Y88411905D02*
X198502200Y89711905D01*
X198935533Y88411905D01*
D10*
D11*
X198595057Y39092858D02*
X198780771Y39030953D01*
X198842676Y38969048D01*
X198904580Y38845239D01*
X198904580Y38659524D01*
X198842676Y38535715D01*
X198780771Y38473810D01*
X198656961Y38411905D01*
X198161723Y38411905D01*
X198161723Y39711905D01*
X198595057Y39711905D01*
X198718866Y39650000D01*
X198780771Y39588096D01*
X198842676Y39464286D01*
X198842676Y39340477D01*
X198780771Y39216667D01*
X198718866Y39154762D01*
X198595057Y39092858D01*
X198161723Y39092858D01*
D10*
D11*
X198904580Y-11464285D02*
X198842676Y-11526190D01*
X198656961Y-11588095D01*
X198533152Y-11588095D01*
X198347438Y-11526190D01*
X198223628Y-11402380D01*
X198161723Y-11278571D01*
X198099819Y-11030952D01*
X198099819Y-10845238D01*
X198161723Y-10597619D01*
X198223628Y-10473809D01*
X198347438Y-10350000D01*
X198533152Y-10288095D01*
X198656961Y-10288095D01*
X198842676Y-10350000D01*
X198904580Y-10411904D01*
D10*
D11*
X198161723Y-61588095D02*
X198161723Y-60288095D01*
X198471247Y-60288095D01*
X198656961Y-60350000D01*
X198780771Y-60473809D01*
X198842676Y-60597619D01*
X198904580Y-60845238D01*
X198904580Y-61030952D01*
X198842676Y-61278571D01*
X198780771Y-61402380D01*
X198656961Y-61526190D01*
X198471247Y-61588095D01*
X198161723Y-61588095D01*
D10*
D11*
X112934342Y-69785771D02*
X112934342Y-68285771D01*
X113291485Y-68285771D01*
X113505771Y-68357200D01*
X113648628Y-68500057D01*
X113720057Y-68642914D01*
X113791485Y-68928628D01*
X113791485Y-69142914D01*
X113720057Y-69428628D01*
X113648628Y-69571485D01*
X113505771Y-69714342D01*
X113291485Y-69785771D01*
X112934342Y-69785771D01*
X115077200Y-69785771D02*
X115077200Y-69000057D01*
X115005771Y-68857200D01*
X114862914Y-68785771D01*
X114577200Y-68785771D01*
X114434342Y-68857200D01*
X115077200Y-69714342D02*
X114934342Y-69785771D01*
X114577200Y-69785771D01*
X114434342Y-69714342D01*
X114362914Y-69571485D01*
X114362914Y-69428628D01*
X114434342Y-69285771D01*
X114577200Y-69214342D01*
X114934342Y-69214342D01*
X115077200Y-69142914D01*
X115577200Y-68785771D02*
X116148628Y-68785771D01*
X115791485Y-68285771D02*
X115791485Y-69571485D01*
X115862914Y-69714342D01*
X116005771Y-69785771D01*
X116148628Y-69785771D01*
X117220057Y-69714342D02*
X117077200Y-69785771D01*
X116791485Y-69785771D01*
X116648628Y-69714342D01*
X116577200Y-69571485D01*
X116577200Y-69000057D01*
X116648628Y-68857200D01*
X116791485Y-68785771D01*
X117077200Y-68785771D01*
X117220057Y-68857200D01*
X117291485Y-69000057D01*
X117291485Y-69142914D01*
X116577200Y-69285771D01*
X117934342Y-69642914D02*
X118005771Y-69714342D01*
X117934342Y-69785771D01*
X117862914Y-69714342D01*
X117934342Y-69642914D01*
X117934342Y-69785771D01*
X117934342Y-68857200D02*
X118005771Y-68928628D01*
X117934342Y-69000057D01*
X117862914Y-68928628D01*
X117934342Y-68857200D01*
X117934342Y-69000057D01*
X119720057Y-68428628D02*
X119791485Y-68357200D01*
X119934342Y-68285771D01*
X120291485Y-68285771D01*
X120434342Y-68357200D01*
X120505771Y-68428628D01*
X120577200Y-68571485D01*
X120577200Y-68714342D01*
X120505771Y-68928628D01*
X119648628Y-69785771D01*
X120577200Y-69785771D01*
X121505771Y-68285771D02*
X121648628Y-68285771D01*
X121791485Y-68357200D01*
X121862914Y-68428628D01*
X121934342Y-68571485D01*
X122005771Y-68857200D01*
X122005771Y-69214342D01*
X121934342Y-69500057D01*
X121862914Y-69642914D01*
X121791485Y-69714342D01*
X121648628Y-69785771D01*
X121505771Y-69785771D01*
X121362914Y-69714342D01*
X121291485Y-69642914D01*
X121220057Y-69500057D01*
X121148628Y-69214342D01*
X121148628Y-68857200D01*
X121220057Y-68571485D01*
X121291485Y-68428628D01*
X121362914Y-68357200D01*
X121505771Y-68285771D01*
X122577200Y-68428628D02*
X122648628Y-68357200D01*
X122791485Y-68285771D01*
X123148628Y-68285771D01*
X123291485Y-68357200D01*
X123362914Y-68428628D01*
X123434342Y-68571485D01*
X123434342Y-68714342D01*
X123362914Y-68928628D01*
X122505771Y-69785771D01*
X123434342Y-69785771D01*
X124005771Y-68428628D02*
X124077200Y-68357200D01*
X124220057Y-68285771D01*
X124577200Y-68285771D01*
X124720057Y-68357200D01*
X124791485Y-68428628D01*
X124862914Y-68571485D01*
X124862914Y-68714342D01*
X124791485Y-68928628D01*
X123934342Y-69785771D01*
X124862914Y-69785771D01*
X125505771Y-69214342D02*
X126648628Y-69214342D01*
X127648628Y-68285771D02*
X127791485Y-68285771D01*
X127934342Y-68357200D01*
X128005771Y-68428628D01*
X128077200Y-68571485D01*
X128148628Y-68857200D01*
X128148628Y-69214342D01*
X128077200Y-69500057D01*
X128005771Y-69642914D01*
X127934342Y-69714342D01*
X127791485Y-69785771D01*
X127648628Y-69785771D01*
X127505771Y-69714342D01*
X127434342Y-69642914D01*
X127362914Y-69500057D01*
X127291485Y-69214342D01*
X127291485Y-68857200D01*
X127362914Y-68571485D01*
X127434342Y-68428628D01*
X127505771Y-68357200D01*
X127648628Y-68285771D01*
X129505771Y-68285771D02*
X128791485Y-68285771D01*
X128720057Y-69000057D01*
X128791485Y-68928628D01*
X128934342Y-68857200D01*
X129291485Y-68857200D01*
X129434342Y-68928628D01*
X129505771Y-69000057D01*
X129577200Y-69142914D01*
X129577200Y-69500057D01*
X129505771Y-69642914D01*
X129434342Y-69714342D01*
X129291485Y-69785771D01*
X128934342Y-69785771D01*
X128791485Y-69714342D01*
X128720057Y-69642914D01*
X130220057Y-69214342D02*
X131362914Y-69214342D01*
X132005771Y-68428628D02*
X132077200Y-68357200D01*
X132220057Y-68285771D01*
X132577200Y-68285771D01*
X132720057Y-68357200D01*
X132791485Y-68428628D01*
X132862914Y-68571485D01*
X132862914Y-68714342D01*
X132791485Y-68928628D01*
X131934342Y-69785771D01*
X132862914Y-69785771D01*
X133362914Y-68285771D02*
X134362914Y-68285771D01*
X133720057Y-69785771D01*
D10*
D11*
X89502200Y-70507200D02*
X197502200Y-70507200D01*
D10*
D11*
X90934342Y-72985771D02*
X90934342Y-71485771D01*
X91791485Y-72985771D02*
X91148628Y-72128628D01*
X91791485Y-71485771D02*
X90934342Y-72342914D01*
X92434342Y-72985771D02*
X92434342Y-71985771D01*
X92434342Y-71485771D02*
X92362914Y-71557200D01*
X92434342Y-71628628D01*
X92505771Y-71557200D01*
X92434342Y-71485771D01*
X92434342Y-71628628D01*
X94005771Y-72842914D02*
X93934342Y-72914342D01*
X93720057Y-72985771D01*
X93577200Y-72985771D01*
X93362914Y-72914342D01*
X93220057Y-72771485D01*
X93148628Y-72628628D01*
X93077200Y-72342914D01*
X93077200Y-72128628D01*
X93148628Y-71842914D01*
X93220057Y-71700057D01*
X93362914Y-71557200D01*
X93577200Y-71485771D01*
X93720057Y-71485771D01*
X93934342Y-71557200D01*
X94005771Y-71628628D01*
X95291485Y-72985771D02*
X95291485Y-72200057D01*
X95220057Y-72057200D01*
X95077200Y-71985771D01*
X94791485Y-71985771D01*
X94648628Y-72057200D01*
X95291485Y-72914342D02*
X95148628Y-72985771D01*
X94791485Y-72985771D01*
X94648628Y-72914342D01*
X94577200Y-72771485D01*
X94577200Y-72628628D01*
X94648628Y-72485771D01*
X94791485Y-72414342D01*
X95148628Y-72414342D01*
X95291485Y-72342914D01*
X96648628Y-72985771D02*
X96648628Y-71485771D01*
X96648628Y-72914342D02*
X96505771Y-72985771D01*
X96220057Y-72985771D01*
X96077200Y-72914342D01*
X96005771Y-72842914D01*
X95934342Y-72700057D01*
X95934342Y-72271485D01*
X96005771Y-72128628D01*
X96077200Y-72057200D01*
X96220057Y-71985771D01*
X96505771Y-71985771D01*
X96648628Y-72057200D01*
X98505771Y-72200057D02*
X99005771Y-72200057D01*
X99220057Y-72985771D02*
X98505771Y-72985771D01*
X98505771Y-71485771D01*
X99220057Y-71485771D01*
X99862914Y-72842914D02*
X99934342Y-72914342D01*
X99862914Y-72985771D01*
X99791485Y-72914342D01*
X99862914Y-72842914D01*
X99862914Y-72985771D01*
X100577200Y-72985771D02*
X100577200Y-71485771D01*
X100934342Y-71485771D01*
X101148628Y-71557200D01*
X101291485Y-71700057D01*
X101362914Y-71842914D01*
X101434342Y-72128628D01*
X101434342Y-72342914D01*
X101362914Y-72628628D01*
X101291485Y-72771485D01*
X101148628Y-72914342D01*
X100934342Y-72985771D01*
X100577200Y-72985771D01*
X102077200Y-72842914D02*
X102148628Y-72914342D01*
X102077200Y-72985771D01*
X102005771Y-72914342D01*
X102077200Y-72842914D01*
X102077200Y-72985771D01*
X102720057Y-72557200D02*
X103434342Y-72557200D01*
X102577200Y-72985771D02*
X103077200Y-71485771D01*
X103577200Y-72985771D01*
X104077200Y-72842914D02*
X104148628Y-72914342D01*
X104077200Y-72985771D01*
X104005771Y-72914342D01*
X104077200Y-72842914D01*
X104077200Y-72985771D01*
X107077200Y-72985771D02*
X107077200Y-71485771D01*
X107220057Y-72414342D02*
X107648628Y-72985771D01*
X107648628Y-71985771D02*
X107077200Y-72557200D01*
X108291485Y-72985771D02*
X108291485Y-71985771D01*
X108291485Y-71485771D02*
X108220057Y-71557200D01*
X108291485Y-71628628D01*
X108362914Y-71557200D01*
X108291485Y-71485771D01*
X108291485Y-71628628D01*
X109648628Y-72914342D02*
X109505771Y-72985771D01*
X109220057Y-72985771D01*
X109077200Y-72914342D01*
X109005771Y-72842914D01*
X108934342Y-72700057D01*
X108934342Y-72271485D01*
X109005771Y-72128628D01*
X109077200Y-72057200D01*
X109220057Y-71985771D01*
X109505771Y-71985771D01*
X109648628Y-72057200D01*
X110934342Y-72985771D02*
X110934342Y-72200057D01*
X110862914Y-72057200D01*
X110720057Y-71985771D01*
X110434342Y-71985771D01*
X110291485Y-72057200D01*
X110934342Y-72914342D02*
X110791485Y-72985771D01*
X110434342Y-72985771D01*
X110291485Y-72914342D01*
X110220057Y-72771485D01*
X110220057Y-72628628D01*
X110291485Y-72485771D01*
X110434342Y-72414342D01*
X110791485Y-72414342D01*
X110934342Y-72342914D01*
X112291485Y-72985771D02*
X112291485Y-71485771D01*
X112291485Y-72914342D02*
X112148628Y-72985771D01*
X111862914Y-72985771D01*
X111720057Y-72914342D01*
X111648628Y-72842914D01*
X111577200Y-72700057D01*
X111577200Y-72271485D01*
X111648628Y-72128628D01*
X111720057Y-72057200D01*
X111862914Y-71985771D01*
X112148628Y-71985771D01*
X112291485Y-72057200D01*
X114577200Y-73557200D02*
X114505771Y-73485771D01*
X114362914Y-73271485D01*
X114291485Y-73128628D01*
X114220057Y-72914342D01*
X114148628Y-72557200D01*
X114148628Y-72271485D01*
X114220057Y-71914342D01*
X114291485Y-71700057D01*
X114362914Y-71557200D01*
X114505771Y-71342914D01*
X114577200Y-71271485D01*
X115791485Y-71485771D02*
X115505771Y-71485771D01*
X115362914Y-71557200D01*
X115291485Y-71628628D01*
X115148628Y-71842914D01*
X115077200Y-72128628D01*
X115077200Y-72700057D01*
X115148628Y-72842914D01*
X115220057Y-72914342D01*
X115362914Y-72985771D01*
X115648628Y-72985771D01*
X115791485Y-72914342D01*
X115862914Y-72842914D01*
X115934342Y-72700057D01*
X115934342Y-72342914D01*
X115862914Y-72200057D01*
X115791485Y-72128628D01*
X115648628Y-72057200D01*
X115362914Y-72057200D01*
X115220057Y-72128628D01*
X115148628Y-72200057D01*
X115077200Y-72342914D01*
X116577200Y-72842914D02*
X116648628Y-72914342D01*
X116577200Y-72985771D01*
X116505771Y-72914342D01*
X116577200Y-72842914D01*
X116577200Y-72985771D01*
X117577200Y-71485771D02*
X117720057Y-71485771D01*
X117862914Y-71557200D01*
X117934342Y-71628628D01*
X118005771Y-71771485D01*
X118077200Y-72057200D01*
X118077200Y-72414342D01*
X118005771Y-72700057D01*
X117934342Y-72842914D01*
X117862914Y-72914342D01*
X117720057Y-72985771D01*
X117577200Y-72985771D01*
X117434342Y-72914342D01*
X117362914Y-72842914D01*
X117291485Y-72700057D01*
X117220057Y-72414342D01*
X117220057Y-72057200D01*
X117291485Y-71771485D01*
X117362914Y-71628628D01*
X117434342Y-71557200D01*
X117577200Y-71485771D01*
X118720057Y-72842914D02*
X118791485Y-72914342D01*
X118720057Y-72985771D01*
X118648628Y-72914342D01*
X118720057Y-72842914D01*
X118720057Y-72985771D01*
X120220057Y-72985771D02*
X119362914Y-72985771D01*
X119791485Y-72985771D02*
X119791485Y-71485771D01*
X119648628Y-71700057D01*
X119505771Y-71842914D01*
X119362914Y-71914342D01*
X120720057Y-73557200D02*
X120791485Y-73485771D01*
X120934342Y-73271485D01*
X121005771Y-73128628D01*
X121077200Y-72914342D01*
X121148628Y-72557200D01*
X121148628Y-72271485D01*
X121077200Y-71914342D01*
X121005771Y-71700057D01*
X120934342Y-71557200D01*
X120791485Y-71342914D01*
X120720057Y-71271485D01*
D10*
D11*
X89502000Y-67507000D02*
X197502000Y-67507000D01*
D10*
D11*
X151816271Y-72842914D02*
X151735914Y-72914342D01*
X151512700Y-72985771D01*
X151369842Y-72985771D01*
X151164485Y-72914342D01*
X151039485Y-72771485D01*
X150985914Y-72628628D01*
X150950200Y-72342914D01*
X150976985Y-72128628D01*
X151084128Y-71842914D01*
X151173414Y-71700057D01*
X151334128Y-71557200D01*
X151557342Y-71485771D01*
X151700200Y-71485771D01*
X151905557Y-71557200D01*
X151968057Y-71628628D01*
X152655557Y-72985771D02*
X152521628Y-72914342D01*
X152459128Y-72842914D01*
X152405557Y-72700057D01*
X152459128Y-72271485D01*
X152548414Y-72128628D01*
X152628771Y-72057200D01*
X152780557Y-71985771D01*
X152994842Y-71985771D01*
X153128771Y-72057200D01*
X153191271Y-72128628D01*
X153244842Y-72271485D01*
X153191271Y-72700057D01*
X153101985Y-72842914D01*
X153021628Y-72914342D01*
X152869842Y-72985771D01*
X152655557Y-72985771D01*
X153923414Y-71985771D02*
X153735914Y-73485771D01*
X153914485Y-72057200D02*
X154066271Y-71985771D01*
X154351985Y-71985771D01*
X154485914Y-72057200D01*
X154548414Y-72128628D01*
X154601985Y-72271485D01*
X154548414Y-72700057D01*
X154459128Y-72842914D01*
X154378771Y-72914342D01*
X154226985Y-72985771D01*
X153941271Y-72985771D01*
X153807342Y-72914342D01*
X155137700Y-71985771D02*
X155369842Y-72985771D01*
X155851985Y-71985771D02*
X155369842Y-72985771D01*
X155182342Y-73342914D01*
X155101985Y-73414342D01*
X154950200Y-73485771D01*
X156298414Y-72985771D02*
X156423414Y-71985771D01*
X156387700Y-72271485D02*
X156476985Y-72128628D01*
X156557342Y-72057200D01*
X156709128Y-71985771D01*
X156851985Y-71985771D01*
X157226985Y-72985771D02*
X157351985Y-71985771D01*
X157414485Y-71485771D02*
X157334128Y-71557200D01*
X157396628Y-71628628D01*
X157476985Y-71557200D01*
X157414485Y-71485771D01*
X157396628Y-71628628D01*
X158709128Y-71985771D02*
X158557342Y-73200057D01*
X158468057Y-73342914D01*
X158387700Y-73414342D01*
X158235914Y-73485771D01*
X158021628Y-73485771D01*
X157887700Y-73414342D01*
X158593057Y-72914342D02*
X158441271Y-72985771D01*
X158155557Y-72985771D01*
X158021628Y-72914342D01*
X157959128Y-72842914D01*
X157905557Y-72700057D01*
X157959128Y-72271485D01*
X158048414Y-72128628D01*
X158128771Y-72057200D01*
X158280557Y-71985771D01*
X158566271Y-71985771D01*
X158700200Y-72057200D01*
X159298414Y-72985771D02*
X159485914Y-71485771D01*
X159941271Y-72985771D02*
X160039485Y-72200057D01*
X159985914Y-72057200D01*
X159851985Y-71985771D01*
X159637700Y-71985771D01*
X159485914Y-72057200D01*
X159405557Y-72128628D01*
X160566271Y-71985771D02*
X161137700Y-71985771D01*
X160843057Y-71485771D02*
X160682342Y-72771485D01*
X160735914Y-72914342D01*
X160869842Y-72985771D01*
X161012700Y-72985771D01*
X162753771Y-71628628D02*
X162834128Y-71557200D01*
X162985914Y-71485771D01*
X163343057Y-71485771D01*
X163476985Y-71557200D01*
X163539485Y-71628628D01*
X163593057Y-71771485D01*
X163575200Y-71914342D01*
X163476985Y-72128628D01*
X162512700Y-72985771D01*
X163441271Y-72985771D01*
X164557342Y-71485771D02*
X164700200Y-71485771D01*
X164834128Y-71557200D01*
X164896628Y-71628628D01*
X164950200Y-71771485D01*
X164985914Y-72057200D01*
X164941271Y-72414342D01*
X164834128Y-72700057D01*
X164744842Y-72842914D01*
X164664485Y-72914342D01*
X164512700Y-72985771D01*
X164369842Y-72985771D01*
X164235914Y-72914342D01*
X164173414Y-72842914D01*
X164119842Y-72700057D01*
X164084128Y-72414342D01*
X164128771Y-72057200D01*
X164235914Y-71771485D01*
X164325200Y-71628628D01*
X164405557Y-71557200D01*
X164557342Y-71485771D01*
X165610914Y-71628628D02*
X165691271Y-71557200D01*
X165843057Y-71485771D01*
X166200200Y-71485771D01*
X166334128Y-71557200D01*
X166396628Y-71628628D01*
X166450200Y-71771485D01*
X166432342Y-71914342D01*
X166334128Y-72128628D01*
X165369842Y-72985771D01*
X166298414Y-72985771D01*
X167039485Y-71628628D02*
X167119842Y-71557200D01*
X167271628Y-71485771D01*
X167628771Y-71485771D01*
X167762700Y-71557200D01*
X167825200Y-71628628D01*
X167878771Y-71771485D01*
X167860914Y-71914342D01*
X167762700Y-72128628D01*
X166798414Y-72985771D01*
X167726985Y-72985771D01*
D10*
D12*
X171052342Y-66185771D02*
X171052342Y-64685771D01*
X171623771Y-64685771D01*
X171766628Y-64757200D01*
X171838057Y-64828628D01*
X171909485Y-64971485D01*
X171909485Y-65185771D01*
X171838057Y-65328628D01*
X171766628Y-65400057D01*
X171623771Y-65471485D01*
X171052342Y-65471485D01*
X173409485Y-66042914D02*
X173338057Y-66114342D01*
X173123771Y-66185771D01*
X172980914Y-66185771D01*
X172766628Y-66114342D01*
X172623771Y-65971485D01*
X172552342Y-65828628D01*
X172480914Y-65542914D01*
X172480914Y-65328628D01*
X172552342Y-65042914D01*
X172623771Y-64900057D01*
X172766628Y-64757200D01*
X172980914Y-64685771D01*
X173123771Y-64685771D01*
X173338057Y-64757200D01*
X173409485Y-64828628D01*
X174552342Y-65400057D02*
X174766628Y-65471485D01*
X174838057Y-65542914D01*
X174909485Y-65685771D01*
X174909485Y-65900057D01*
X174838057Y-66042914D01*
X174766628Y-66114342D01*
X174623771Y-66185771D01*
X174052342Y-66185771D01*
X174052342Y-64685771D01*
X174552342Y-64685771D01*
X174695200Y-64757200D01*
X174766628Y-64828628D01*
X174838057Y-64971485D01*
X174838057Y-65114342D01*
X174766628Y-65257200D01*
X174695200Y-65328628D01*
X174552342Y-65400057D01*
X174052342Y-65400057D01*
X176695200Y-66185771D02*
X176695200Y-64685771D01*
X177409485Y-66185771D02*
X177409485Y-64685771D01*
X177766628Y-64685771D01*
X177980914Y-64757200D01*
X178123771Y-64900057D01*
X178195200Y-65042914D01*
X178266628Y-65328628D01*
X178266628Y-65542914D01*
X178195200Y-65828628D01*
X178123771Y-65971485D01*
X177980914Y-66114342D01*
X177766628Y-66185771D01*
X177409485Y-66185771D01*
X178909485Y-66042914D02*
X178980914Y-66114342D01*
X178909485Y-66185771D01*
X178838057Y-66114342D01*
X178909485Y-66042914D01*
X178909485Y-66185771D01*
X178909485Y-65257200D02*
X178980914Y-65328628D01*
X178909485Y-65400057D01*
X178838057Y-65328628D01*
X178909485Y-65257200D01*
X178909485Y-65400057D01*
X180766628Y-66185771D02*
X180766628Y-64685771D01*
X181338057Y-64685771D01*
X181480914Y-64757200D01*
X181552342Y-64828628D01*
X181623771Y-64971485D01*
X181623771Y-65185771D01*
X181552342Y-65328628D01*
X181480914Y-65400057D01*
X181338057Y-65471485D01*
X180766628Y-65471485D01*
X182052342Y-64685771D02*
X182909485Y-64685771D01*
X182480914Y-66185771D02*
X182480914Y-64685771D01*
X184195200Y-66185771D02*
X183338057Y-66185771D01*
X183766628Y-66185771D02*
X183766628Y-64685771D01*
X183623771Y-64900057D01*
X183480914Y-65042914D01*
X183338057Y-65114342D01*
X184695200Y-64685771D02*
X185623771Y-64685771D01*
X185123771Y-65257200D01*
X185338057Y-65257200D01*
X185480914Y-65328628D01*
X185552342Y-65400057D01*
X185623771Y-65542914D01*
X185623771Y-65900057D01*
X185552342Y-66042914D01*
X185480914Y-66114342D01*
X185338057Y-66185771D01*
X184909485Y-66185771D01*
X184766628Y-66114342D01*
X184695200Y-66042914D01*
X186552342Y-64685771D02*
X186695200Y-64685771D01*
X186838057Y-64757200D01*
X186909485Y-64828628D01*
X186980914Y-64971485D01*
X187052342Y-65257200D01*
X187052342Y-65614342D01*
X186980914Y-65900057D01*
X186909485Y-66042914D01*
X186838057Y-66114342D01*
X186695200Y-66185771D01*
X186552342Y-66185771D01*
X186409485Y-66114342D01*
X186338057Y-66042914D01*
X186266628Y-65900057D01*
X186195200Y-65614342D01*
X186195200Y-65257200D01*
X186266628Y-64971485D01*
X186338057Y-64828628D01*
X186409485Y-64757200D01*
X186552342Y-64685771D01*
X187623771Y-65757200D02*
X188338057Y-65757200D01*
X187480914Y-66185771D02*
X187980914Y-64685771D01*
X188480914Y-66185771D01*
D10*
D12*
X171911285Y-69785571D02*
X171411285Y-69071285D01*
X171054142Y-69785571D02*
X171054142Y-68285571D01*
X171625571Y-68285571D01*
X171768428Y-68357000D01*
X171839857Y-68428428D01*
X171911285Y-68571285D01*
X171911285Y-68785571D01*
X171839857Y-68928428D01*
X171768428Y-68999857D01*
X171625571Y-69071285D01*
X171054142Y-69071285D01*
X173125571Y-69714142D02*
X172982714Y-69785571D01*
X172697000Y-69785571D01*
X172554142Y-69714142D01*
X172482714Y-69571285D01*
X172482714Y-68999857D01*
X172554142Y-68857000D01*
X172697000Y-68785571D01*
X172982714Y-68785571D01*
X173125571Y-68857000D01*
X173197000Y-68999857D01*
X173197000Y-69142714D01*
X172482714Y-69285571D01*
X173697000Y-68785571D02*
X174054142Y-69785571D01*
X174411285Y-68785571D01*
X174982714Y-69642714D02*
X175054142Y-69714142D01*
X174982714Y-69785571D01*
X174911285Y-69714142D01*
X174982714Y-69642714D01*
X174982714Y-69785571D01*
X174982714Y-68857000D02*
X175054142Y-68928428D01*
X174982714Y-68999857D01*
X174911285Y-68928428D01*
X174982714Y-68857000D01*
X174982714Y-68999857D01*
X177625571Y-69785571D02*
X176768428Y-69785571D01*
X177197000Y-69785571D02*
X177197000Y-68285571D01*
X177054142Y-68499857D01*
X176911285Y-68642714D01*
X176768428Y-68714142D01*
X178268428Y-69642714D02*
X178339857Y-69714142D01*
X178268428Y-69785571D01*
X178197000Y-69714142D01*
X178268428Y-69642714D01*
X178268428Y-69785571D01*
X179268428Y-68285571D02*
X179411285Y-68285571D01*
X179554142Y-68357000D01*
X179625571Y-68428428D01*
X179697000Y-68571285D01*
X179768428Y-68857000D01*
X179768428Y-69214142D01*
X179697000Y-69499857D01*
X179625571Y-69642714D01*
X179554142Y-69714142D01*
X179411285Y-69785571D01*
X179268428Y-69785571D01*
X179125571Y-69714142D01*
X179054142Y-69642714D01*
X178982714Y-69499857D01*
X178911285Y-69214142D01*
X178911285Y-68857000D01*
X178982714Y-68571285D01*
X179054142Y-68428428D01*
X179125571Y-68357000D01*
X179268428Y-68285571D01*
D10*
D11*
X90862914Y-69714342D02*
X91077200Y-69785771D01*
X91434342Y-69785771D01*
X91577200Y-69714342D01*
X91648628Y-69642914D01*
X91720057Y-69500057D01*
X91720057Y-69357200D01*
X91648628Y-69214342D01*
X91577200Y-69142914D01*
X91434342Y-69071485D01*
X91148628Y-69000057D01*
X91005771Y-68928628D01*
X90934342Y-68857200D01*
X90862914Y-68714342D01*
X90862914Y-68571485D01*
X90934342Y-68428628D01*
X91005771Y-68357200D01*
X91148628Y-68285771D01*
X91505771Y-68285771D01*
X91720057Y-68357200D01*
X92362914Y-69785771D02*
X92362914Y-68785771D01*
X92362914Y-68285771D02*
X92291485Y-68357200D01*
X92362914Y-68428628D01*
X92434342Y-68357200D01*
X92362914Y-68285771D01*
X92362914Y-68428628D01*
X92934342Y-68785771D02*
X93720057Y-68785771D01*
X92934342Y-69785771D01*
X93720057Y-69785771D01*
X94862914Y-69714342D02*
X94720057Y-69785771D01*
X94434342Y-69785771D01*
X94291485Y-69714342D01*
X94220057Y-69571485D01*
X94220057Y-69000057D01*
X94291485Y-68857200D01*
X94434342Y-68785771D01*
X94720057Y-68785771D01*
X94862914Y-68857200D01*
X94934342Y-69000057D01*
X94934342Y-69142914D01*
X94220057Y-69285771D01*
X95577200Y-69642914D02*
X95648628Y-69714342D01*
X95577200Y-69785771D01*
X95505771Y-69714342D01*
X95577200Y-69642914D01*
X95577200Y-69785771D01*
X95577200Y-68857200D02*
X95648628Y-68928628D01*
X95577200Y-69000057D01*
X95505771Y-68928628D01*
X95577200Y-68857200D01*
X95577200Y-69000057D01*
X97362914Y-69357200D02*
X98077200Y-69357200D01*
X97220057Y-69785771D02*
X97720057Y-68285771D01*
X98220057Y-69785771D01*
X99362914Y-68785771D02*
X99362914Y-69785771D01*
X99005771Y-68214342D02*
X98648628Y-69285771D01*
X99577200Y-69285771D01*
D10*
D11*
X170862914Y-72914342D02*
X171077200Y-72985771D01*
X171434342Y-72985771D01*
X171577200Y-72914342D01*
X171648628Y-72842914D01*
X171720057Y-72700057D01*
X171720057Y-72557200D01*
X171648628Y-72414342D01*
X171577200Y-72342914D01*
X171434342Y-72271485D01*
X171148628Y-72200057D01*
X171005771Y-72128628D01*
X170934342Y-72057200D01*
X170862914Y-71914342D01*
X170862914Y-71771485D01*
X170934342Y-71628628D01*
X171005771Y-71557200D01*
X171148628Y-71485771D01*
X171505771Y-71485771D01*
X171720057Y-71557200D01*
X172362914Y-72985771D02*
X172362914Y-71485771D01*
X173005771Y-72985771D02*
X173005771Y-72200057D01*
X172934342Y-72057200D01*
X172791485Y-71985771D01*
X172577200Y-71985771D01*
X172434342Y-72057200D01*
X172362914Y-72128628D01*
X174291485Y-72914342D02*
X174148628Y-72985771D01*
X173862914Y-72985771D01*
X173720057Y-72914342D01*
X173648628Y-72771485D01*
X173648628Y-72200057D01*
X173720057Y-72057200D01*
X173862914Y-71985771D01*
X174148628Y-71985771D01*
X174291485Y-72057200D01*
X174362914Y-72200057D01*
X174362914Y-72342914D01*
X173648628Y-72485771D01*
X175577200Y-72914342D02*
X175434342Y-72985771D01*
X175148628Y-72985771D01*
X175005771Y-72914342D01*
X174934342Y-72771485D01*
X174934342Y-72200057D01*
X175005771Y-72057200D01*
X175148628Y-71985771D01*
X175434342Y-71985771D01*
X175577200Y-72057200D01*
X175648628Y-72200057D01*
X175648628Y-72342914D01*
X174934342Y-72485771D01*
X176077200Y-71985771D02*
X176648628Y-71985771D01*
X176291485Y-71485771D02*
X176291485Y-72771485D01*
X176362914Y-72914342D01*
X176505771Y-72985771D01*
X176648628Y-72985771D01*
X177148628Y-72842914D02*
X177220057Y-72914342D01*
X177148628Y-72985771D01*
X177077200Y-72914342D01*
X177148628Y-72842914D01*
X177148628Y-72985771D01*
X177148628Y-72057200D02*
X177220057Y-72128628D01*
X177148628Y-72200057D01*
X177077200Y-72128628D01*
X177148628Y-72057200D01*
X177148628Y-72200057D01*
X179791485Y-72985771D02*
X178934342Y-72985771D01*
X179362914Y-72985771D02*
X179362914Y-71485771D01*
X179220057Y-71700057D01*
X179077200Y-71842914D01*
X178934342Y-71914342D01*
X181791485Y-72985771D02*
X181648628Y-72914342D01*
X181577200Y-72842914D01*
X181505771Y-72700057D01*
X181505771Y-72271485D01*
X181577200Y-72128628D01*
X181648628Y-72057200D01*
X181791485Y-71985771D01*
X182005771Y-71985771D01*
X182148628Y-72057200D01*
X182220057Y-72128628D01*
X182291485Y-72271485D01*
X182291485Y-72700057D01*
X182220057Y-72842914D01*
X182148628Y-72914342D01*
X182005771Y-72985771D01*
X181791485Y-72985771D01*
X182720057Y-71985771D02*
X183291485Y-71985771D01*
X182934342Y-72985771D02*
X182934342Y-71700057D01*
X183005771Y-71557200D01*
X183148628Y-71485771D01*
X183291485Y-71485771D01*
X185720057Y-72985771D02*
X184862914Y-72985771D01*
X185291485Y-72985771D02*
X185291485Y-71485771D01*
X185148628Y-71700057D01*
X185005771Y-71842914D01*
X184862914Y-71914342D01*
D10*
D11*
X89502200Y-63507200D02*
X197502200Y-63507200D01*
D10*
D13*
X91214580Y-64411961D02*
X92357438Y-64411961D01*
X91536009Y-66411961D02*
X91786009Y-64411961D01*
X92774104Y-66411961D02*
X92940771Y-65078628D01*
X93024104Y-64411961D02*
X92916961Y-64507200D01*
X93000295Y-64602438D01*
X93107438Y-64507200D01*
X93024104Y-64411961D01*
X93000295Y-64602438D01*
X93607438Y-65078628D02*
X94369342Y-65078628D01*
X93976485Y-64411961D02*
X93762200Y-66126247D01*
X93833628Y-66316723D01*
X94012200Y-66411961D01*
X94202676Y-66411961D01*
X95155057Y-66411961D02*
X94976485Y-66316723D01*
X94905057Y-66126247D01*
X95119342Y-64411961D01*
X96690771Y-66316723D02*
X96488390Y-66411961D01*
X96107438Y-66411961D01*
X95928866Y-66316723D01*
X95857438Y-66126247D01*
X95952676Y-65364342D01*
X96071723Y-65173866D01*
X96274104Y-65078628D01*
X96655057Y-65078628D01*
X96833628Y-65173866D01*
X96905057Y-65364342D01*
X96881247Y-65554819D01*
X95905057Y-65745295D01*
X97655057Y-66221485D02*
X97738390Y-66316723D01*
X97631247Y-66411961D01*
X97547914Y-66316723D01*
X97655057Y-66221485D01*
X97631247Y-66411961D01*
X97786009Y-65173866D02*
X97869342Y-65269104D01*
X97762200Y-65364342D01*
X97678866Y-65269104D01*
X97786009Y-65173866D01*
X97762200Y-65364342D01*
X100107438Y-66411961D02*
X100357438Y-64411961D01*
X100833628Y-64411961D01*
X101107438Y-64507200D01*
X101274104Y-64697676D01*
X101345533Y-64888152D01*
X101393152Y-65269104D01*
X101357438Y-65554819D01*
X101214580Y-65935771D01*
X101095533Y-66126247D01*
X100881247Y-66316723D01*
X100583628Y-66411961D01*
X100107438Y-66411961D01*
X103274104Y-66221485D02*
X103166961Y-66316723D01*
X102869342Y-66411961D01*
X102678866Y-66411961D01*
X102405057Y-66316723D01*
X102238390Y-66126247D01*
X102166961Y-65935771D01*
X102119342Y-65554819D01*
X102155057Y-65269104D01*
X102297914Y-64888152D01*
X102416961Y-64697676D01*
X102631247Y-64507200D01*
X102928866Y-64411961D01*
X103119342Y-64411961D01*
X103393152Y-64507200D01*
X103476485Y-64602438D01*
X106583628Y-66411961D02*
X105631247Y-66411961D01*
X105881247Y-64411961D01*
X107536009Y-66411961D02*
X107357438Y-66316723D01*
X107274104Y-66221485D01*
X107202676Y-66031009D01*
X107274104Y-65459580D01*
X107393152Y-65269104D01*
X107500295Y-65173866D01*
X107702676Y-65078628D01*
X107988390Y-65078628D01*
X108166961Y-65173866D01*
X108250295Y-65269104D01*
X108321723Y-65459580D01*
X108250295Y-66031009D01*
X108131247Y-66221485D01*
X108024104Y-66316723D01*
X107821723Y-66411961D01*
X107536009Y-66411961D01*
X109916961Y-66411961D02*
X110047914Y-65364342D01*
X109976485Y-65173866D01*
X109797914Y-65078628D01*
X109416961Y-65078628D01*
X109214580Y-65173866D01*
X109928866Y-66316723D02*
X109726485Y-66411961D01*
X109250295Y-66411961D01*
X109071723Y-66316723D01*
X109000295Y-66126247D01*
X109024104Y-65935771D01*
X109143152Y-65745295D01*
X109345533Y-65650057D01*
X109821723Y-65650057D01*
X110024104Y-65554819D01*
X111726485Y-66411961D02*
X111976485Y-64411961D01*
X111738390Y-66316723D02*
X111536009Y-66411961D01*
X111155057Y-66411961D01*
X110976485Y-66316723D01*
X110893152Y-66221485D01*
X110821723Y-66031009D01*
X110893152Y-65459580D01*
X111012200Y-65269104D01*
X111119342Y-65173866D01*
X111321723Y-65078628D01*
X111702676Y-65078628D01*
X111881247Y-65173866D01*
X115000295Y-65364342D02*
X115274104Y-65459580D01*
X115357438Y-65554819D01*
X115428866Y-65745295D01*
X115393152Y-66031009D01*
X115274104Y-66221485D01*
X115166961Y-66316723D01*
X114964580Y-66411961D01*
X114202676Y-66411961D01*
X114452676Y-64411961D01*
X115119342Y-64411961D01*
X115297914Y-64507200D01*
X115381247Y-64602438D01*
X115452676Y-64792914D01*
X115428866Y-64983390D01*
X115309819Y-65173866D01*
X115202676Y-65269104D01*
X115000295Y-65364342D01*
X114333628Y-65364342D01*
X117059819Y-66411961D02*
X117190771Y-65364342D01*
X117119342Y-65173866D01*
X116940771Y-65078628D01*
X116559819Y-65078628D01*
X116357438Y-65173866D01*
X117071723Y-66316723D02*
X116869342Y-66411961D01*
X116393152Y-66411961D01*
X116214580Y-66316723D01*
X116143152Y-66126247D01*
X116166961Y-65935771D01*
X116286009Y-65745295D01*
X116488390Y-65650057D01*
X116964580Y-65650057D01*
X117166961Y-65554819D01*
X118178866Y-65078628D02*
X118012200Y-66411961D01*
X118155057Y-65269104D02*
X118262200Y-65173866D01*
X118464580Y-65078628D01*
X118750295Y-65078628D01*
X118928866Y-65173866D01*
X119000295Y-65364342D01*
X118869342Y-66411961D01*
X120678866Y-66411961D02*
X120809819Y-65364342D01*
X120738390Y-65173866D01*
X120559819Y-65078628D01*
X120178866Y-65078628D01*
X119976485Y-65173866D01*
X120690771Y-66316723D02*
X120488390Y-66411961D01*
X120012200Y-66411961D01*
X119833628Y-66316723D01*
X119762200Y-66126247D01*
X119786009Y-65935771D01*
X119905057Y-65745295D01*
X120107438Y-65650057D01*
X120583628Y-65650057D01*
X120786009Y-65554819D01*
X121797914Y-65078628D02*
X121631247Y-66411961D01*
X121774104Y-65269104D02*
X121881247Y-65173866D01*
X122083628Y-65078628D01*
X122369342Y-65078628D01*
X122547914Y-65173866D01*
X122619342Y-65364342D01*
X122488390Y-66411961D01*
X124297914Y-66411961D02*
X124428866Y-65364342D01*
X124357438Y-65173866D01*
X124178866Y-65078628D01*
X123797914Y-65078628D01*
X123595533Y-65173866D01*
X124309819Y-66316723D02*
X124107438Y-66411961D01*
X123631247Y-66411961D01*
X123452676Y-66316723D01*
X123381247Y-66126247D01*
X123405057Y-65935771D01*
X123524104Y-65745295D01*
X123726485Y-65650057D01*
X124202676Y-65650057D01*
X124405057Y-65554819D01*
X126774104Y-66411961D02*
X127024104Y-64411961D01*
X127786009Y-64411961D01*
X127964580Y-64507200D01*
X128047914Y-64602438D01*
X128119342Y-64792914D01*
X128083628Y-65078628D01*
X127964580Y-65269104D01*
X127857438Y-65364342D01*
X127655057Y-65459580D01*
X126893152Y-65459580D01*
X129059819Y-66411961D02*
X128881247Y-66316723D01*
X128809819Y-66126247D01*
X129024104Y-64411961D01*
X130845533Y-65078628D02*
X130678866Y-66411961D01*
X129988390Y-65078628D02*
X129857438Y-66126247D01*
X129928866Y-66316723D01*
X130107438Y-66411961D01*
X130393152Y-66411961D01*
X130595533Y-66316723D01*
X130702676Y-66221485D01*
X132655057Y-65078628D02*
X132452676Y-66697676D01*
X132333628Y-66888152D01*
X132226485Y-66983390D01*
X132024104Y-67078628D01*
X131738390Y-67078628D01*
X131559819Y-66983390D01*
X132500295Y-66316723D02*
X132297914Y-66411961D01*
X131916961Y-66411961D01*
X131738390Y-66316723D01*
X131655057Y-66221485D01*
X131583628Y-66031009D01*
X131655057Y-65459580D01*
X131774104Y-65269104D01*
X131881247Y-65173866D01*
X132083628Y-65078628D01*
X132464580Y-65078628D01*
X132643152Y-65173866D01*
X134940771Y-65840533D02*
X135893152Y-65840533D01*
X134678866Y-66411961D02*
X135595533Y-64411961D01*
X136012200Y-66411961D01*
X137536009Y-66411961D02*
X137786009Y-64411961D01*
X137547914Y-66316723D02*
X137345533Y-66411961D01*
X136964580Y-66411961D01*
X136786009Y-66316723D01*
X136702676Y-66221485D01*
X136631247Y-66031009D01*
X136702676Y-65459580D01*
X136821723Y-65269104D01*
X136928866Y-65173866D01*
X137131247Y-65078628D01*
X137512200Y-65078628D01*
X137690771Y-65173866D01*
X139345533Y-66411961D02*
X139476485Y-65364342D01*
X139405057Y-65173866D01*
X139226485Y-65078628D01*
X138845533Y-65078628D01*
X138643152Y-65173866D01*
X139357438Y-66316723D02*
X139155057Y-66411961D01*
X138678866Y-66411961D01*
X138500295Y-66316723D01*
X138428866Y-66126247D01*
X138452676Y-65935771D01*
X138571723Y-65745295D01*
X138774104Y-65650057D01*
X139250295Y-65650057D01*
X139452676Y-65554819D01*
X140464580Y-65078628D02*
X140214580Y-67078628D01*
X140452676Y-65173866D02*
X140655057Y-65078628D01*
X141036009Y-65078628D01*
X141214580Y-65173866D01*
X141297914Y-65269104D01*
X141369342Y-65459580D01*
X141297914Y-66031009D01*
X141178866Y-66221485D01*
X141071723Y-66316723D01*
X140869342Y-66411961D01*
X140488390Y-66411961D01*
X140309819Y-66316723D01*
X141988390Y-65078628D02*
X142750295Y-65078628D01*
X142357438Y-64411961D02*
X142143152Y-66126247D01*
X142214580Y-66316723D01*
X142393152Y-66411961D01*
X142583628Y-66411961D01*
X144024104Y-66316723D02*
X143821723Y-66411961D01*
X143440771Y-66411961D01*
X143262199Y-66316723D01*
X143190771Y-66126247D01*
X143286009Y-65364342D01*
X143405057Y-65173866D01*
X143607438Y-65078628D01*
X143988390Y-65078628D01*
X144166961Y-65173866D01*
X144238390Y-65364342D01*
X144214580Y-65554819D01*
X143238390Y-65745295D01*
X144964580Y-66411961D02*
X145131247Y-65078628D01*
X145083628Y-65459580D02*
X145202676Y-65269104D01*
X145309819Y-65173866D01*
X145512199Y-65078628D01*
X145702676Y-65078628D01*
D10*
D11*
X91434342Y-61600057D02*
X90934342Y-61600057D01*
X90934342Y-62385771D02*
X90934342Y-60885771D01*
X91648628Y-60885771D01*
X92220057Y-62385771D02*
X92220057Y-61385771D01*
X92220057Y-60885771D02*
X92148628Y-60957200D01*
X92220057Y-61028628D01*
X92291485Y-60957200D01*
X92220057Y-60885771D01*
X92220057Y-61028628D01*
X93148628Y-62385771D02*
X93005771Y-62314342D01*
X92934342Y-62171485D01*
X92934342Y-60885771D01*
X94291485Y-62314342D02*
X94148628Y-62385771D01*
X93862914Y-62385771D01*
X93720057Y-62314342D01*
X93648628Y-62171485D01*
X93648628Y-61600057D01*
X93720057Y-61457200D01*
X93862914Y-61385771D01*
X94148628Y-61385771D01*
X94291485Y-61457200D01*
X94362914Y-61600057D01*
X94362914Y-61742914D01*
X93648628Y-61885771D01*
X95005771Y-62242914D02*
X95077200Y-62314342D01*
X95005771Y-62385771D01*
X94934342Y-62314342D01*
X95005771Y-62242914D01*
X95005771Y-62385771D01*
X95005771Y-61457200D02*
X95077200Y-61528628D01*
X95005771Y-61600057D01*
X94934342Y-61528628D01*
X95005771Y-61457200D01*
X95005771Y-61600057D01*
X96862914Y-61385771D02*
X96862914Y-62885771D01*
X96862914Y-61457200D02*
X97005771Y-61385771D01*
X97291485Y-61385771D01*
X97434342Y-61457200D01*
X97505771Y-61528628D01*
X97577200Y-61671485D01*
X97577200Y-62100057D01*
X97505771Y-62242914D01*
X97434342Y-62314342D01*
X97291485Y-62385771D01*
X97005771Y-62385771D01*
X96862914Y-62314342D01*
X98005771Y-61385771D02*
X98577200Y-61385771D01*
X98220057Y-60885771D02*
X98220057Y-62171485D01*
X98291485Y-62314342D01*
X98434342Y-62385771D01*
X98577200Y-62385771D01*
X99862914Y-62385771D02*
X99005771Y-62385771D01*
X99434342Y-62385771D02*
X99434342Y-60885771D01*
X99291485Y-61100057D01*
X99148628Y-61242914D01*
X99005771Y-61314342D01*
X100362914Y-60885771D02*
X101291485Y-60885771D01*
X100791485Y-61457200D01*
X101005771Y-61457200D01*
X101148628Y-61528628D01*
X101220057Y-61600057D01*
X101291485Y-61742914D01*
X101291485Y-62100057D01*
X101220057Y-62242914D01*
X101148628Y-62314342D01*
X101005771Y-62385771D01*
X100577200Y-62385771D01*
X100434342Y-62314342D01*
X100362914Y-62242914D01*
X102220057Y-60885771D02*
X102362914Y-60885771D01*
X102505771Y-60957200D01*
X102577200Y-61028628D01*
X102648628Y-61171485D01*
X102720057Y-61457200D01*
X102720057Y-61814342D01*
X102648628Y-62100057D01*
X102577200Y-62242914D01*
X102505771Y-62314342D01*
X102362914Y-62385771D01*
X102220057Y-62385771D01*
X102077200Y-62314342D01*
X102005771Y-62242914D01*
X101934342Y-62100057D01*
X101862914Y-61814342D01*
X101862914Y-61457200D01*
X101934342Y-61171485D01*
X102005771Y-61028628D01*
X102077200Y-60957200D01*
X102220057Y-60885771D01*
X104005771Y-62385771D02*
X104005771Y-61600057D01*
X103934342Y-61457200D01*
X103791485Y-61385771D01*
X103505771Y-61385771D01*
X103362914Y-61457200D01*
X104005771Y-62314342D02*
X103862914Y-62385771D01*
X103505771Y-62385771D01*
X103362914Y-62314342D01*
X103291485Y-62171485D01*
X103291485Y-62028628D01*
X103362914Y-61885771D01*
X103505771Y-61814342D01*
X103862914Y-61814342D01*
X104005771Y-61742914D01*
X104362914Y-62528628D02*
X105505771Y-62528628D01*
X106505771Y-62385771D02*
X106505771Y-60885771D01*
X106505771Y-62314342D02*
X106362914Y-62385771D01*
X106077200Y-62385771D01*
X105934342Y-62314342D01*
X105862914Y-62242914D01*
X105791485Y-62100057D01*
X105791485Y-61671485D01*
X105862914Y-61528628D01*
X105934342Y-61457200D01*
X106077200Y-61385771D01*
X106362914Y-61385771D01*
X106505771Y-61457200D01*
X107862914Y-62314342D02*
X107720057Y-62385771D01*
X107434342Y-62385771D01*
X107291485Y-62314342D01*
X107220057Y-62242914D01*
X107148628Y-62100057D01*
X107148628Y-61671485D01*
X107220057Y-61528628D01*
X107291485Y-61457200D01*
X107434342Y-61385771D01*
X107720057Y-61385771D01*
X107862914Y-61457200D01*
X108505771Y-61814342D02*
X109648628Y-61814342D01*
X110577200Y-62385771D02*
X110434342Y-62314342D01*
X110362914Y-62171485D01*
X110362914Y-60885771D01*
X111362914Y-62385771D02*
X111220057Y-62314342D01*
X111148628Y-62242914D01*
X111077200Y-62100057D01*
X111077200Y-61671485D01*
X111148628Y-61528628D01*
X111220057Y-61457200D01*
X111362914Y-61385771D01*
X111577200Y-61385771D01*
X111720057Y-61457200D01*
X111791485Y-61528628D01*
X111862914Y-61671485D01*
X111862914Y-62100057D01*
X111791485Y-62242914D01*
X111720057Y-62314342D01*
X111577200Y-62385771D01*
X111362914Y-62385771D01*
X113148628Y-62385771D02*
X113148628Y-61600057D01*
X113077200Y-61457200D01*
X112934342Y-61385771D01*
X112648628Y-61385771D01*
X112505771Y-61457200D01*
X113148628Y-62314342D02*
X113005771Y-62385771D01*
X112648628Y-62385771D01*
X112505771Y-62314342D01*
X112434342Y-62171485D01*
X112434342Y-62028628D01*
X112505771Y-61885771D01*
X112648628Y-61814342D01*
X113005771Y-61814342D01*
X113148628Y-61742914D01*
X114505771Y-62385771D02*
X114505771Y-60885771D01*
X114505771Y-62314342D02*
X114362914Y-62385771D01*
X114077200Y-62385771D01*
X113934342Y-62314342D01*
X113862914Y-62242914D01*
X113791485Y-62100057D01*
X113791485Y-61671485D01*
X113862914Y-61528628D01*
X113934342Y-61457200D01*
X114077200Y-61385771D01*
X114362914Y-61385771D01*
X114505771Y-61457200D01*
X115220057Y-61814342D02*
X116362914Y-61814342D01*
X117077200Y-62385771D02*
X117077200Y-60885771D01*
X117077200Y-61457200D02*
X117220057Y-61385771D01*
X117505771Y-61385771D01*
X117648628Y-61457200D01*
X117720057Y-61528628D01*
X117791485Y-61671485D01*
X117791485Y-62100057D01*
X117720057Y-62242914D01*
X117648628Y-62314342D01*
X117505771Y-62385771D01*
X117220057Y-62385771D01*
X117077200Y-62314342D01*
X119077200Y-62385771D02*
X119077200Y-61600057D01*
X119005771Y-61457200D01*
X118862914Y-61385771D01*
X118577200Y-61385771D01*
X118434342Y-61457200D01*
X119077200Y-62314342D02*
X118934342Y-62385771D01*
X118577200Y-62385771D01*
X118434342Y-62314342D01*
X118362914Y-62171485D01*
X118362914Y-62028628D01*
X118434342Y-61885771D01*
X118577200Y-61814342D01*
X118934342Y-61814342D01*
X119077200Y-61742914D01*
X119791485Y-61385771D02*
X119791485Y-62385771D01*
X119791485Y-61528628D02*
X119862914Y-61457200D01*
X120005771Y-61385771D01*
X120220057Y-61385771D01*
X120362914Y-61457200D01*
X120434342Y-61600057D01*
X120434342Y-62385771D01*
X121791485Y-62385771D02*
X121791485Y-61600057D01*
X121720057Y-61457200D01*
X121577200Y-61385771D01*
X121291485Y-61385771D01*
X121148628Y-61457200D01*
X121791485Y-62314342D02*
X121648628Y-62385771D01*
X121291485Y-62385771D01*
X121148628Y-62314342D01*
X121077200Y-62171485D01*
X121077200Y-62028628D01*
X121148628Y-61885771D01*
X121291485Y-61814342D01*
X121648628Y-61814342D01*
X121791485Y-61742914D01*
X122505771Y-61385771D02*
X122505771Y-62385771D01*
X122505771Y-61528628D02*
X122577200Y-61457200D01*
X122720057Y-61385771D01*
X122934342Y-61385771D01*
X123077200Y-61457200D01*
X123148628Y-61600057D01*
X123148628Y-62385771D01*
X124505771Y-62385771D02*
X124505771Y-61600057D01*
X124434342Y-61457200D01*
X124291485Y-61385771D01*
X124005771Y-61385771D01*
X123862914Y-61457200D01*
X124505771Y-62314342D02*
X124362914Y-62385771D01*
X124005771Y-62385771D01*
X123862914Y-62314342D01*
X123791485Y-62171485D01*
X123791485Y-62028628D01*
X123862914Y-61885771D01*
X124005771Y-61814342D01*
X124362914Y-61814342D01*
X124505771Y-61742914D01*
X125220057Y-61814342D02*
X126362914Y-61814342D01*
X127077200Y-61385771D02*
X127077200Y-62885771D01*
X127077200Y-61457200D02*
X127220057Y-61385771D01*
X127505771Y-61385771D01*
X127648628Y-61457200D01*
X127720057Y-61528628D01*
X127791485Y-61671485D01*
X127791485Y-62100057D01*
X127720057Y-62242914D01*
X127648628Y-62314342D01*
X127505771Y-62385771D01*
X127220057Y-62385771D01*
X127077200Y-62314342D01*
X128648628Y-62385771D02*
X128505771Y-62314342D01*
X128434342Y-62171485D01*
X128434342Y-60885771D01*
X129862914Y-61385771D02*
X129862914Y-62385771D01*
X129220057Y-61385771D02*
X129220057Y-62171485D01*
X129291485Y-62314342D01*
X129434342Y-62385771D01*
X129648628Y-62385771D01*
X129791485Y-62314342D01*
X129862914Y-62242914D01*
X131220057Y-61385771D02*
X131220057Y-62600057D01*
X131148628Y-62742914D01*
X131077200Y-62814342D01*
X130934342Y-62885771D01*
X130720057Y-62885771D01*
X130577200Y-62814342D01*
X131220057Y-62314342D02*
X131077200Y-62385771D01*
X130791485Y-62385771D01*
X130648628Y-62314342D01*
X130577200Y-62242914D01*
X130505771Y-62100057D01*
X130505771Y-61671485D01*
X130577200Y-61528628D01*
X130648628Y-61457200D01*
X130791485Y-61385771D01*
X131077200Y-61385771D01*
X131220057Y-61457200D01*
X131934342Y-61814342D02*
X133077200Y-61814342D01*
X134434342Y-62385771D02*
X134434342Y-61600057D01*
X134362914Y-61457200D01*
X134220057Y-61385771D01*
X133934342Y-61385771D01*
X133791485Y-61457200D01*
X134434342Y-62314342D02*
X134291485Y-62385771D01*
X133934342Y-62385771D01*
X133791485Y-62314342D01*
X133720057Y-62171485D01*
X133720057Y-62028628D01*
X133791485Y-61885771D01*
X133934342Y-61814342D01*
X134291485Y-61814342D01*
X134434342Y-61742914D01*
X135791485Y-62385771D02*
X135791485Y-60885771D01*
X135791485Y-62314342D02*
X135648628Y-62385771D01*
X135362914Y-62385771D01*
X135220057Y-62314342D01*
X135148628Y-62242914D01*
X135077200Y-62100057D01*
X135077200Y-61671485D01*
X135148628Y-61528628D01*
X135220057Y-61457200D01*
X135362914Y-61385771D01*
X135648628Y-61385771D01*
X135791485Y-61457200D01*
X137148628Y-62385771D02*
X137148628Y-61600057D01*
X137077200Y-61457200D01*
X136934342Y-61385771D01*
X136648628Y-61385771D01*
X136505771Y-61457200D01*
X137148628Y-62314342D02*
X137005771Y-62385771D01*
X136648628Y-62385771D01*
X136505771Y-62314342D01*
X136434342Y-62171485D01*
X136434342Y-62028628D01*
X136505771Y-61885771D01*
X136648628Y-61814342D01*
X137005771Y-61814342D01*
X137148628Y-61742914D01*
X137862914Y-61385771D02*
X137862914Y-62885771D01*
X137862914Y-61457200D02*
X138005771Y-61385771D01*
X138291485Y-61385771D01*
X138434342Y-61457200D01*
X138505771Y-61528628D01*
X138577200Y-61671485D01*
X138577200Y-62100057D01*
X138505771Y-62242914D01*
X138434342Y-62314342D01*
X138291485Y-62385771D01*
X138005771Y-62385771D01*
X137862914Y-62314342D01*
X139005771Y-61385771D02*
X139577200Y-61385771D01*
X139220057Y-60885771D02*
X139220057Y-62171485D01*
X139291485Y-62314342D01*
X139434342Y-62385771D01*
X139577200Y-62385771D01*
X140648628Y-62314342D02*
X140505771Y-62385771D01*
X140220057Y-62385771D01*
X140077200Y-62314342D01*
X140005771Y-62171485D01*
X140005771Y-61600057D01*
X140077200Y-61457200D01*
X140220057Y-61385771D01*
X140505771Y-61385771D01*
X140648628Y-61457200D01*
X140720057Y-61600057D01*
X140720057Y-61742914D01*
X140005771Y-61885771D01*
X141362914Y-62385771D02*
X141362914Y-61385771D01*
X141362914Y-61671485D02*
X141434342Y-61528628D01*
X141505771Y-61457200D01*
X141648628Y-61385771D01*
X141791485Y-61385771D01*
X142291485Y-62242914D02*
X142362914Y-62314342D01*
X142291485Y-62385771D01*
X142220057Y-62314342D01*
X142291485Y-62242914D01*
X142291485Y-62385771D01*
X143005771Y-62385771D02*
X143005771Y-60885771D01*
X143148628Y-61814342D02*
X143577200Y-62385771D01*
X143577200Y-61385771D02*
X143005771Y-61957200D01*
X144220057Y-62385771D02*
X144220057Y-61385771D01*
X144220057Y-60885771D02*
X144148628Y-60957200D01*
X144220057Y-61028628D01*
X144291485Y-60957200D01*
X144220057Y-60885771D01*
X144220057Y-61028628D01*
X145577200Y-62314342D02*
X145434342Y-62385771D01*
X145148628Y-62385771D01*
X145005771Y-62314342D01*
X144934342Y-62242914D01*
X144862914Y-62100057D01*
X144862914Y-61671485D01*
X144934342Y-61528628D01*
X145005771Y-61457200D01*
X145148628Y-61385771D01*
X145434342Y-61385771D01*
X145577200Y-61457200D01*
X146862914Y-62385771D02*
X146862914Y-61600057D01*
X146791485Y-61457200D01*
X146648628Y-61385771D01*
X146362914Y-61385771D01*
X146220057Y-61457200D01*
X146862914Y-62314342D02*
X146720057Y-62385771D01*
X146362914Y-62385771D01*
X146220057Y-62314342D01*
X146148628Y-62171485D01*
X146148628Y-62028628D01*
X146220057Y-61885771D01*
X146362914Y-61814342D01*
X146720057Y-61814342D01*
X146862914Y-61742914D01*
X148220057Y-62385771D02*
X148220057Y-60885771D01*
X148220057Y-62314342D02*
X148077200Y-62385771D01*
X147791485Y-62385771D01*
X147648628Y-62314342D01*
X147577200Y-62242914D01*
X147505771Y-62100057D01*
X147505771Y-61671485D01*
X147577200Y-61528628D01*
X147648628Y-61457200D01*
X147791485Y-61385771D01*
X148077200Y-61385771D01*
X148220057Y-61457200D01*
X148577200Y-62528628D02*
X149720057Y-62528628D01*
X150077200Y-61385771D02*
X150077200Y-62885771D01*
X150077200Y-61457200D02*
X150220057Y-61385771D01*
X150505771Y-61385771D01*
X150648628Y-61457200D01*
X150720057Y-61528628D01*
X150791485Y-61671485D01*
X150791485Y-62100057D01*
X150720057Y-62242914D01*
X150648628Y-62314342D01*
X150505771Y-62385771D01*
X150220057Y-62385771D01*
X150077200Y-62314342D01*
X152077200Y-62314342D02*
X151934342Y-62385771D01*
X151648628Y-62385771D01*
X151505771Y-62314342D01*
X151434342Y-62242914D01*
X151362914Y-62100057D01*
X151362914Y-61671485D01*
X151434342Y-61528628D01*
X151505771Y-61457200D01*
X151648628Y-61385771D01*
X151934342Y-61385771D01*
X152077200Y-61457200D01*
X152720057Y-62385771D02*
X152720057Y-60885771D01*
X152720057Y-61457200D02*
X152862914Y-61385771D01*
X153148628Y-61385771D01*
X153291485Y-61457200D01*
X153362914Y-61528628D01*
X153434342Y-61671485D01*
X153434342Y-62100057D01*
X153362914Y-62242914D01*
X153291485Y-62314342D01*
X153148628Y-62385771D01*
X152862914Y-62385771D01*
X152720057Y-62314342D01*
D10*
D11*
X89502200Y-57507200D02*
X197502200Y-57507200D01*
D10*
D11*
X90862914Y-59614342D02*
X91077200Y-59685771D01*
X91434342Y-59685771D01*
X91577200Y-59614342D01*
X91648628Y-59542914D01*
X91720057Y-59400057D01*
X91720057Y-59257200D01*
X91648628Y-59114342D01*
X91577200Y-59042914D01*
X91434342Y-58971485D01*
X91148628Y-58900057D01*
X91005771Y-58828628D01*
X90934342Y-58757200D01*
X90862914Y-58614342D01*
X90862914Y-58471485D01*
X90934342Y-58328628D01*
X91005771Y-58257200D01*
X91148628Y-58185771D01*
X91505771Y-58185771D01*
X91720057Y-58257200D01*
X92362914Y-59685771D02*
X92362914Y-58185771D01*
X93005771Y-59685771D02*
X93005771Y-58900057D01*
X92934342Y-58757200D01*
X92791485Y-58685771D01*
X92577200Y-58685771D01*
X92434342Y-58757200D01*
X92362914Y-58828628D01*
X94291485Y-59614342D02*
X94148628Y-59685771D01*
X93862914Y-59685771D01*
X93720057Y-59614342D01*
X93648628Y-59471485D01*
X93648628Y-58900057D01*
X93720057Y-58757200D01*
X93862914Y-58685771D01*
X94148628Y-58685771D01*
X94291485Y-58757200D01*
X94362914Y-58900057D01*
X94362914Y-59042914D01*
X93648628Y-59185771D01*
X95577200Y-59614342D02*
X95434342Y-59685771D01*
X95148628Y-59685771D01*
X95005771Y-59614342D01*
X94934342Y-59471485D01*
X94934342Y-58900057D01*
X95005771Y-58757200D01*
X95148628Y-58685771D01*
X95434342Y-58685771D01*
X95577200Y-58757200D01*
X95648628Y-58900057D01*
X95648628Y-59042914D01*
X94934342Y-59185771D01*
X96077200Y-58685771D02*
X96648628Y-58685771D01*
X96291485Y-58185771D02*
X96291485Y-59471485D01*
X96362914Y-59614342D01*
X96505771Y-59685771D01*
X96648628Y-59685771D01*
X97148628Y-59542914D02*
X97220057Y-59614342D01*
X97148628Y-59685771D01*
X97077200Y-59614342D01*
X97148628Y-59542914D01*
X97148628Y-59685771D01*
X97148628Y-58757200D02*
X97220057Y-58828628D01*
X97148628Y-58900057D01*
X97077200Y-58828628D01*
X97148628Y-58757200D01*
X97148628Y-58900057D01*
D10*
D14*
X91877057Y-50607000D02*
X92734200Y-50607000D01*
X91705628Y-51121285D02*
X92305628Y-49321285D01*
X92905628Y-51121285D01*
X94277057Y-49921285D02*
X94277057Y-51121285D01*
X93505628Y-49921285D02*
X93505628Y-50864142D01*
X93591342Y-51035571D01*
X93762771Y-51121285D01*
X94019914Y-51121285D01*
X94191342Y-51035571D01*
X94277057Y-50949857D01*
X94877057Y-49921285D02*
X95562771Y-49921285D01*
X95134200Y-49321285D02*
X95134200Y-50864142D01*
X95219914Y-51035571D01*
X95391342Y-51121285D01*
X95562771Y-51121285D01*
X96162771Y-51121285D02*
X96162771Y-49321285D01*
X96934200Y-51121285D02*
X96934200Y-50178428D01*
X96848485Y-50007000D01*
X96677057Y-49921285D01*
X96419914Y-49921285D01*
X96248485Y-50007000D01*
X96162771Y-50092714D01*
X98048485Y-51121285D02*
X97877057Y-51035571D01*
X97791342Y-50949857D01*
X97705628Y-50778428D01*
X97705628Y-50264142D01*
X97791342Y-50092714D01*
X97877057Y-50007000D01*
X98048485Y-49921285D01*
X98305628Y-49921285D01*
X98477057Y-50007000D01*
X98562771Y-50092714D01*
X98648485Y-50264142D01*
X98648485Y-50778428D01*
X98562771Y-50949857D01*
X98477057Y-51035571D01*
X98305628Y-51121285D01*
X98048485Y-51121285D01*
X99419914Y-51121285D02*
X99419914Y-49921285D01*
X99419914Y-50264142D02*
X99505628Y-50092714D01*
X99591342Y-50007000D01*
X99762771Y-49921285D01*
X99934200Y-49921285D01*
X100534200Y-50949857D02*
X100619914Y-51035571D01*
X100534200Y-51121285D01*
X100448485Y-51035571D01*
X100534200Y-50949857D01*
X100534200Y-51121285D01*
X100534200Y-50007000D02*
X100619914Y-50092714D01*
X100534200Y-50178428D01*
X100448485Y-50092714D01*
X100534200Y-50007000D01*
X100534200Y-50178428D01*
X106877057Y-51121285D02*
X106877057Y-49321285D01*
X107905628Y-51121285D02*
X107134200Y-50092714D01*
X107905628Y-49321285D02*
X106877057Y-50349857D01*
X109362771Y-51035571D02*
X109191342Y-51121285D01*
X108848485Y-51121285D01*
X108677057Y-51035571D01*
X108591342Y-50864142D01*
X108591342Y-50178428D01*
X108677057Y-50007000D01*
X108848485Y-49921285D01*
X109191342Y-49921285D01*
X109362771Y-50007000D01*
X109448485Y-50178428D01*
X109448485Y-50349857D01*
X108591342Y-50521285D01*
X110048485Y-49921285D02*
X110477057Y-51121285D01*
X110905628Y-49921285D01*
X111591342Y-51121285D02*
X111591342Y-49921285D01*
X111591342Y-49321285D02*
X111505628Y-49407000D01*
X111591342Y-49492714D01*
X111677057Y-49407000D01*
X111591342Y-49321285D01*
X111591342Y-49492714D01*
X112448485Y-49921285D02*
X112448485Y-51121285D01*
X112448485Y-50092714D02*
X112534200Y-50007000D01*
X112705628Y-49921285D01*
X112962771Y-49921285D01*
X113134200Y-50007000D01*
X113219914Y-50178428D01*
X113219914Y-51121285D01*
X116048485Y-50178428D02*
X116305628Y-50264142D01*
X116391342Y-50349857D01*
X116477057Y-50521285D01*
X116477057Y-50778428D01*
X116391342Y-50949857D01*
X116305628Y-51035571D01*
X116134200Y-51121285D01*
X115448485Y-51121285D01*
X115448485Y-49321285D01*
X116048485Y-49321285D01*
X116219914Y-49407000D01*
X116305628Y-49492714D01*
X116391342Y-49664142D01*
X116391342Y-49835571D01*
X116305628Y-50007000D01*
X116219914Y-50092714D01*
X116048485Y-50178428D01*
X115448485Y-50178428D01*
X117248485Y-51121285D02*
X117248485Y-49921285D01*
X117248485Y-49321285D02*
X117162771Y-49407000D01*
X117248485Y-49492714D01*
X117334200Y-49407000D01*
X117248485Y-49321285D01*
X117248485Y-49492714D01*
X118105628Y-51121285D02*
X118105628Y-49321285D01*
X118105628Y-50007000D02*
X118277057Y-49921285D01*
X118619914Y-49921285D01*
X118791342Y-50007000D01*
X118877057Y-50092714D01*
X118962771Y-50264142D01*
X118962771Y-50778428D01*
X118877057Y-50949857D01*
X118791342Y-51035571D01*
X118619914Y-51121285D01*
X118277057Y-51121285D01*
X118105628Y-51035571D01*
X119734200Y-51121285D02*
X119734200Y-49321285D01*
X119734200Y-50007000D02*
X119905628Y-49921285D01*
X120248485Y-49921285D01*
X120419914Y-50007000D01*
X120505628Y-50092714D01*
X120591342Y-50264142D01*
X120591342Y-50778428D01*
X120505628Y-50949857D01*
X120419914Y-51035571D01*
X120248485Y-51121285D01*
X119905628Y-51121285D01*
X119734200Y-51035571D01*
X121191342Y-49921285D02*
X121619914Y-51121285D01*
X122048485Y-49921285D02*
X121619914Y-51121285D01*
X121448485Y-51549857D01*
X121362771Y-51635571D01*
X121191342Y-51721285D01*
D10*
D14*
X92993342Y-46849857D02*
X92907628Y-46935571D01*
X92650485Y-47021285D01*
X92479057Y-47021285D01*
X92221914Y-46935571D01*
X92050485Y-46764142D01*
X91964771Y-46592714D01*
X91879057Y-46249857D01*
X91879057Y-45992714D01*
X91964771Y-45649857D01*
X92050485Y-45478428D01*
X92221914Y-45307000D01*
X92479057Y-45221285D01*
X92650485Y-45221285D01*
X92907628Y-45307000D01*
X92993342Y-45392714D01*
X94536200Y-45821285D02*
X94536200Y-47021285D01*
X93764771Y-45821285D02*
X93764771Y-46764142D01*
X93850485Y-46935571D01*
X94021914Y-47021285D01*
X94279057Y-47021285D01*
X94450485Y-46935571D01*
X94536200Y-46849857D01*
X95307628Y-46935571D02*
X95479057Y-47021285D01*
X95821914Y-47021285D01*
X95993342Y-46935571D01*
X96079057Y-46764142D01*
X96079057Y-46678428D01*
X95993342Y-46507000D01*
X95821914Y-46421285D01*
X95564771Y-46421285D01*
X95393342Y-46335571D01*
X95307628Y-46164142D01*
X95307628Y-46078428D01*
X95393342Y-45907000D01*
X95564771Y-45821285D01*
X95821914Y-45821285D01*
X95993342Y-45907000D01*
X96593342Y-45821285D02*
X97279057Y-45821285D01*
X96850485Y-45221285D02*
X96850485Y-46764142D01*
X96936200Y-46935571D01*
X97107628Y-47021285D01*
X97279057Y-47021285D01*
X98136200Y-47021285D02*
X97964771Y-46935571D01*
X97879057Y-46849857D01*
X97793342Y-46678428D01*
X97793342Y-46164142D01*
X97879057Y-45992714D01*
X97964771Y-45907000D01*
X98136200Y-45821285D01*
X98393342Y-45821285D01*
X98564771Y-45907000D01*
X98650485Y-45992714D01*
X98736200Y-46164142D01*
X98736200Y-46678428D01*
X98650485Y-46849857D01*
X98564771Y-46935571D01*
X98393342Y-47021285D01*
X98136200Y-47021285D01*
X99507628Y-47021285D02*
X99507628Y-45821285D01*
X99507628Y-45992714D02*
X99593342Y-45907000D01*
X99764771Y-45821285D01*
X100021914Y-45821285D01*
X100193342Y-45907000D01*
X100279057Y-46078428D01*
X100279057Y-47021285D01*
X100279057Y-46078428D02*
X100364771Y-45907000D01*
X100536200Y-45821285D01*
X100793342Y-45821285D01*
X100964771Y-45907000D01*
X101050485Y-46078428D01*
X101050485Y-47021285D01*
X102593342Y-46935571D02*
X102421914Y-47021285D01*
X102079057Y-47021285D01*
X101907628Y-46935571D01*
X101821914Y-46764142D01*
X101821914Y-46078428D01*
X101907628Y-45907000D01*
X102079057Y-45821285D01*
X102421914Y-45821285D01*
X102593342Y-45907000D01*
X102679057Y-46078428D01*
X102679057Y-46249857D01*
X101821914Y-46421285D01*
X103450485Y-47021285D02*
X103450485Y-45821285D01*
X103450485Y-46164142D02*
X103536200Y-45992714D01*
X103621914Y-45907000D01*
X103793342Y-45821285D01*
X103964771Y-45821285D01*
X104564771Y-46849857D02*
X104650485Y-46935571D01*
X104564771Y-47021285D01*
X104479057Y-46935571D01*
X104564771Y-46849857D01*
X104564771Y-47021285D01*
X104564771Y-45907000D02*
X104650485Y-45992714D01*
X104564771Y-46078428D01*
X104479057Y-45992714D01*
X104564771Y-45907000D01*
X104564771Y-46078428D01*
X106793342Y-47021285D02*
X106793342Y-45221285D01*
X107650485Y-45821285D02*
X107650485Y-47021285D01*
X107650485Y-45992714D02*
X107736200Y-45907000D01*
X107907628Y-45821285D01*
X108164771Y-45821285D01*
X108336200Y-45907000D01*
X108421914Y-46078428D01*
X108421914Y-47021285D01*
X109021914Y-45821285D02*
X109707628Y-45821285D01*
X109279057Y-45221285D02*
X109279057Y-46764142D01*
X109364771Y-46935571D01*
X109536200Y-47021285D01*
X109707628Y-47021285D01*
X110993342Y-46935571D02*
X110821914Y-47021285D01*
X110479057Y-47021285D01*
X110307628Y-46935571D01*
X110221914Y-46764142D01*
X110221914Y-46078428D01*
X110307628Y-45907000D01*
X110479057Y-45821285D01*
X110821914Y-45821285D01*
X110993342Y-45907000D01*
X111079057Y-46078428D01*
X111079057Y-46249857D01*
X110221914Y-46421285D01*
X111850485Y-47021285D02*
X111850485Y-45821285D01*
X111850485Y-46164142D02*
X111936200Y-45992714D01*
X112021914Y-45907000D01*
X112193342Y-45821285D01*
X112364771Y-45821285D01*
X112964771Y-45821285D02*
X112964771Y-47021285D01*
X112964771Y-45992714D02*
X113050485Y-45907000D01*
X113221914Y-45821285D01*
X113479057Y-45821285D01*
X113650485Y-45907000D01*
X113736200Y-46078428D01*
X113736200Y-47021285D01*
X115364771Y-47021285D02*
X115364771Y-46078428D01*
X115279057Y-45907000D01*
X115107628Y-45821285D01*
X114764771Y-45821285D01*
X114593342Y-45907000D01*
X115364771Y-46935571D02*
X115193342Y-47021285D01*
X114764771Y-47021285D01*
X114593342Y-46935571D01*
X114507628Y-46764142D01*
X114507628Y-46592714D01*
X114593342Y-46421285D01*
X114764771Y-46335571D01*
X115193342Y-46335571D01*
X115364771Y-46249857D01*
X116479057Y-47021285D02*
X116307628Y-46935571D01*
X116221914Y-46764142D01*
X116221914Y-45221285D01*
D10*
D11*
D10*
D11*
X109502200Y-67507200D02*
X109502200Y-70507200D01*
D10*
D11*
X169502200Y-63507200D02*
X169502200Y-74007200D01*
D10*
D11*
X140943071Y-45678571D02*
X141130571Y-44178571D01*
X141487714Y-44178571D01*
X141693071Y-44250000D01*
X141818071Y-44392857D01*
X141871642Y-44535714D01*
X141907357Y-44821428D01*
X141880571Y-45035714D01*
X141773428Y-45321428D01*
X141684142Y-45464285D01*
X141523428Y-45607142D01*
X141300214Y-45678571D01*
X140943071Y-45678571D01*
X143023428Y-45607142D02*
X142871642Y-45678571D01*
X142585928Y-45678571D01*
X142452000Y-45607142D01*
X142398428Y-45464285D01*
X142469857Y-44892857D01*
X142559142Y-44750000D01*
X142710928Y-44678571D01*
X142996642Y-44678571D01*
X143130571Y-44750000D01*
X143184142Y-44892857D01*
X143166285Y-45035714D01*
X142434142Y-45178571D01*
X143666285Y-45607142D02*
X143800214Y-45678571D01*
X144085928Y-45678571D01*
X144237714Y-45607142D01*
X144327000Y-45464285D01*
X144335928Y-45392857D01*
X144282357Y-45250000D01*
X144148428Y-45178571D01*
X143934142Y-45178571D01*
X143800214Y-45107142D01*
X143746642Y-44964285D01*
X143755571Y-44892857D01*
X143844857Y-44750000D01*
X143996642Y-44678571D01*
X144210928Y-44678571D01*
X144344857Y-44750000D01*
X144943071Y-45678571D02*
X145068071Y-44678571D01*
X145130571Y-44178571D02*
X145050214Y-44250000D01*
X145112714Y-44321428D01*
X145193071Y-44250000D01*
X145130571Y-44178571D01*
X145112714Y-44321428D01*
X146425214Y-44678571D02*
X146273428Y-45892857D01*
X146184142Y-46035714D01*
X146103785Y-46107142D01*
X145952000Y-46178571D01*
X145737714Y-46178571D01*
X145603785Y-46107142D01*
X146309142Y-45607142D02*
X146157357Y-45678571D01*
X145871642Y-45678571D01*
X145737714Y-45607142D01*
X145675214Y-45535714D01*
X145621642Y-45392857D01*
X145675214Y-44964285D01*
X145764500Y-44821428D01*
X145844857Y-44750000D01*
X145996642Y-44678571D01*
X146282357Y-44678571D01*
X146416285Y-44750000D01*
X147139500Y-44678571D02*
X147014500Y-45678571D01*
X147121642Y-44821428D02*
X147202000Y-44750000D01*
X147353785Y-44678571D01*
X147568071Y-44678571D01*
X147702000Y-44750000D01*
X147755571Y-44892857D01*
X147657357Y-45678571D01*
X148952000Y-45607142D02*
X148800214Y-45678571D01*
X148514500Y-45678571D01*
X148380571Y-45607142D01*
X148327000Y-45464285D01*
X148398428Y-44892857D01*
X148487714Y-44750000D01*
X148639500Y-44678571D01*
X148925214Y-44678571D01*
X149059142Y-44750000D01*
X149112714Y-44892857D01*
X149094857Y-45035714D01*
X148362714Y-45178571D01*
X150300214Y-45678571D02*
X150487714Y-44178571D01*
X150309142Y-45607142D02*
X150157357Y-45678571D01*
X149871642Y-45678571D01*
X149737714Y-45607142D01*
X149675214Y-45535714D01*
X149621642Y-45392857D01*
X149675214Y-44964285D01*
X149764500Y-44821428D01*
X149844857Y-44750000D01*
X149996642Y-44678571D01*
X150282357Y-44678571D01*
X150416285Y-44750000D01*
X152157357Y-45678571D02*
X152344857Y-44178571D01*
X152273428Y-44750000D02*
X152425214Y-44678571D01*
X152710928Y-44678571D01*
X152844857Y-44750000D01*
X152907357Y-44821428D01*
X152960928Y-44964285D01*
X152907357Y-45392857D01*
X152818071Y-45535714D01*
X152737714Y-45607142D01*
X152585928Y-45678571D01*
X152300214Y-45678571D01*
X152166285Y-45607142D01*
X153496642Y-44678571D02*
X153728785Y-45678571D01*
X154210928Y-44678571D02*
X153728785Y-45678571D01*
X153541285Y-46035714D01*
X153460928Y-46107142D01*
X153309142Y-46178571D01*
X154737714Y-45607142D02*
X154728785Y-45678571D01*
X154639500Y-45821428D01*
X154559142Y-45892857D01*
X154773428Y-44750000D02*
X154835928Y-44821428D01*
X154755571Y-44892857D01*
X154693071Y-44821428D01*
X154773428Y-44750000D01*
X154755571Y-44892857D01*
D10*
D12*
X159911285Y-55185571D02*
X160197000Y-56185571D01*
X160482714Y-55471285D01*
X160768428Y-56185571D01*
X161054142Y-55185571D01*
X161482714Y-55185571D02*
X161768428Y-56185571D01*
X162054142Y-55471285D01*
X162339857Y-56185571D01*
X162625571Y-55185571D01*
X163054142Y-55185571D02*
X163339857Y-56185571D01*
X163625571Y-55471285D01*
X163911285Y-56185571D01*
X164197000Y-55185571D01*
X164768428Y-56042714D02*
X164839857Y-56114142D01*
X164768428Y-56185571D01*
X164697000Y-56114142D01*
X164768428Y-56042714D01*
X164768428Y-56185571D01*
X165697000Y-56185571D02*
X165554142Y-56114142D01*
X165482714Y-56042714D01*
X165411285Y-55899857D01*
X165411285Y-55471285D01*
X165482714Y-55328428D01*
X165554142Y-55257000D01*
X165697000Y-55185571D01*
X165911285Y-55185571D01*
X166054142Y-55257000D01*
X166125571Y-55328428D01*
X166197000Y-55471285D01*
X166197000Y-55899857D01*
X166125571Y-56042714D01*
X166054142Y-56114142D01*
X165911285Y-56185571D01*
X165697000Y-56185571D01*
X166839857Y-55185571D02*
X166839857Y-56685571D01*
X166839857Y-55257000D02*
X166982714Y-55185571D01*
X167268428Y-55185571D01*
X167411285Y-55257000D01*
X167482714Y-55328428D01*
X167554142Y-55471285D01*
X167554142Y-55899857D01*
X167482714Y-56042714D01*
X167411285Y-56114142D01*
X167268428Y-56185571D01*
X166982714Y-56185571D01*
X166839857Y-56114142D01*
X167982714Y-55185571D02*
X168554142Y-55185571D01*
X168197000Y-54685571D02*
X168197000Y-55971285D01*
X168268428Y-56114142D01*
X168411285Y-56185571D01*
X168554142Y-56185571D01*
X169054142Y-56185571D02*
X169054142Y-55185571D01*
X169054142Y-54685571D02*
X168982714Y-54757000D01*
X169054142Y-54828428D01*
X169125571Y-54757000D01*
X169054142Y-54685571D01*
X169054142Y-54828428D01*
X169768428Y-56185571D02*
X169768428Y-55185571D01*
X169768428Y-55328428D02*
X169839857Y-55257000D01*
X169982714Y-55185571D01*
X170197000Y-55185571D01*
X170339857Y-55257000D01*
X170411285Y-55399857D01*
X170411285Y-56185571D01*
X170411285Y-55399857D02*
X170482714Y-55257000D01*
X170625571Y-55185571D01*
X170839857Y-55185571D01*
X170982714Y-55257000D01*
X171054142Y-55399857D01*
X171054142Y-56185571D01*
X171768428Y-56185571D02*
X171768428Y-55185571D01*
X171768428Y-54685571D02*
X171697000Y-54757000D01*
X171768428Y-54828428D01*
X171839857Y-54757000D01*
X171768428Y-54685571D01*
X171768428Y-54828428D01*
X172411285Y-56114142D02*
X172554142Y-56185571D01*
X172839857Y-56185571D01*
X172982714Y-56114142D01*
X173054142Y-55971285D01*
X173054142Y-55899857D01*
X172982714Y-55757000D01*
X172839857Y-55685571D01*
X172625571Y-55685571D01*
X172482714Y-55614142D01*
X172411285Y-55471285D01*
X172411285Y-55399857D01*
X172482714Y-55257000D01*
X172625571Y-55185571D01*
X172839857Y-55185571D01*
X172982714Y-55257000D01*
X174268428Y-56114142D02*
X174125571Y-56185571D01*
X173839857Y-56185571D01*
X173697000Y-56114142D01*
X173625571Y-55971285D01*
X173625571Y-55399857D01*
X173697000Y-55257000D01*
X173839857Y-55185571D01*
X174125571Y-55185571D01*
X174268428Y-55257000D01*
X174339857Y-55399857D01*
X174339857Y-55542714D01*
X173625571Y-55685571D01*
X175625571Y-56185571D02*
X175625571Y-54685571D01*
X175625571Y-56114142D02*
X175482714Y-56185571D01*
X175197000Y-56185571D01*
X175054142Y-56114142D01*
X174982714Y-56042714D01*
X174911285Y-55899857D01*
X174911285Y-55471285D01*
X174982714Y-55328428D01*
X175054142Y-55257000D01*
X175197000Y-55185571D01*
X175482714Y-55185571D01*
X175625571Y-55257000D01*
X176982714Y-56185571D02*
X176982714Y-54685571D01*
X176982714Y-56114142D02*
X176839857Y-56185571D01*
X176554142Y-56185571D01*
X176411285Y-56114142D01*
X176339857Y-56042714D01*
X176268428Y-55899857D01*
X176268428Y-55471285D01*
X176339857Y-55328428D01*
X176411285Y-55257000D01*
X176554142Y-55185571D01*
X176839857Y-55185571D01*
X176982714Y-55257000D01*
X178268428Y-56114142D02*
X178125571Y-56185571D01*
X177839857Y-56185571D01*
X177697000Y-56114142D01*
X177625571Y-55971285D01*
X177625571Y-55399857D01*
X177697000Y-55257000D01*
X177839857Y-55185571D01*
X178125571Y-55185571D01*
X178268428Y-55257000D01*
X178339857Y-55399857D01*
X178339857Y-55542714D01*
X177625571Y-55685571D01*
X178911285Y-56114142D02*
X179054142Y-56185571D01*
X179339857Y-56185571D01*
X179482714Y-56114142D01*
X179554142Y-55971285D01*
X179554142Y-55899857D01*
X179482714Y-55757000D01*
X179339857Y-55685571D01*
X179125571Y-55685571D01*
X178982714Y-55614142D01*
X178911285Y-55471285D01*
X178911285Y-55399857D01*
X178982714Y-55257000D01*
X179125571Y-55185571D01*
X179339857Y-55185571D01*
X179482714Y-55257000D01*
X180197000Y-56185571D02*
X180197000Y-55185571D01*
X180197000Y-54685571D02*
X180125571Y-54757000D01*
X180197000Y-54828428D01*
X180268428Y-54757000D01*
X180197000Y-54685571D01*
X180197000Y-54828428D01*
X181554142Y-55185571D02*
X181554142Y-56399857D01*
X181482714Y-56542714D01*
X181411285Y-56614142D01*
X181268428Y-56685571D01*
X181054142Y-56685571D01*
X180911285Y-56614142D01*
X181554142Y-56114142D02*
X181411285Y-56185571D01*
X181125571Y-56185571D01*
X180982714Y-56114142D01*
X180911285Y-56042714D01*
X180839857Y-55899857D01*
X180839857Y-55471285D01*
X180911285Y-55328428D01*
X180982714Y-55257000D01*
X181125571Y-55185571D01*
X181411285Y-55185571D01*
X181554142Y-55257000D01*
X182268428Y-55185571D02*
X182268428Y-56185571D01*
X182268428Y-55328428D02*
X182339857Y-55257000D01*
X182482714Y-55185571D01*
X182697000Y-55185571D01*
X182839857Y-55257000D01*
X182911285Y-55399857D01*
X182911285Y-56185571D01*
X183625571Y-56042714D02*
X183697000Y-56114142D01*
X183625571Y-56185571D01*
X183554142Y-56114142D01*
X183625571Y-56042714D01*
X183625571Y-56185571D01*
X184982714Y-56114142D02*
X184839857Y-56185571D01*
X184554142Y-56185571D01*
X184411285Y-56114142D01*
X184339857Y-56042714D01*
X184268428Y-55899857D01*
X184268428Y-55471285D01*
X184339857Y-55328428D01*
X184411285Y-55257000D01*
X184554142Y-55185571D01*
X184839857Y-55185571D01*
X184982714Y-55257000D01*
X185839857Y-56185571D02*
X185697000Y-56114142D01*
X185625571Y-56042714D01*
X185554142Y-55899857D01*
X185554142Y-55471285D01*
X185625571Y-55328428D01*
X185697000Y-55257000D01*
X185839857Y-55185571D01*
X186054142Y-55185571D01*
X186197000Y-55257000D01*
X186268428Y-55328428D01*
X186339857Y-55471285D01*
X186339857Y-55899857D01*
X186268428Y-56042714D01*
X186197000Y-56114142D01*
X186054142Y-56185571D01*
X185839857Y-56185571D01*
X186982714Y-56185571D02*
X186982714Y-55185571D01*
X186982714Y-55328428D02*
X187054142Y-55257000D01*
X187197000Y-55185571D01*
X187411285Y-55185571D01*
X187554142Y-55257000D01*
X187625571Y-55399857D01*
X187625571Y-56185571D01*
X187625571Y-55399857D02*
X187697000Y-55257000D01*
X187839857Y-55185571D01*
X188054142Y-55185571D01*
X188197000Y-55257000D01*
X188268428Y-55399857D01*
X188268428Y-56185571D01*
D10*
D14*
X92691342Y-55121285D02*
X92091342Y-54264142D01*
X91662771Y-55121285D02*
X91662771Y-53321285D01*
X92348485Y-53321285D01*
X92519914Y-53407000D01*
X92605628Y-53492714D01*
X92691342Y-53664142D01*
X92691342Y-53921285D01*
X92605628Y-54092714D01*
X92519914Y-54178428D01*
X92348485Y-54264142D01*
X91662771Y-54264142D01*
X94148485Y-55035571D02*
X93977057Y-55121285D01*
X93634200Y-55121285D01*
X93462771Y-55035571D01*
X93377057Y-54864142D01*
X93377057Y-54178428D01*
X93462771Y-54007000D01*
X93634200Y-53921285D01*
X93977057Y-53921285D01*
X94148485Y-54007000D01*
X94234200Y-54178428D01*
X94234200Y-54349857D01*
X93377057Y-54521285D01*
X94834200Y-53921285D02*
X95262771Y-55121285D01*
X95691342Y-53921285D01*
X96377057Y-55121285D02*
X96377057Y-53921285D01*
X96377057Y-53321285D02*
X96291342Y-53407000D01*
X96377057Y-53492714D01*
X96462771Y-53407000D01*
X96377057Y-53321285D01*
X96377057Y-53492714D01*
X97919914Y-55035571D02*
X97748485Y-55121285D01*
X97405628Y-55121285D01*
X97234200Y-55035571D01*
X97148485Y-54864142D01*
X97148485Y-54178428D01*
X97234200Y-54007000D01*
X97405628Y-53921285D01*
X97748485Y-53921285D01*
X97919914Y-54007000D01*
X98005628Y-54178428D01*
X98005628Y-54349857D01*
X97148485Y-54521285D01*
X98605628Y-53921285D02*
X98948485Y-55121285D01*
X99291342Y-54264142D01*
X99634200Y-55121285D01*
X99977057Y-53921285D01*
X101348485Y-55035571D02*
X101177057Y-55121285D01*
X100834200Y-55121285D01*
X100662771Y-55035571D01*
X100577057Y-54864142D01*
X100577057Y-54178428D01*
X100662771Y-54007000D01*
X100834200Y-53921285D01*
X101177057Y-53921285D01*
X101348485Y-54007000D01*
X101434200Y-54178428D01*
X101434200Y-54349857D01*
X100577057Y-54521285D01*
X102205628Y-55121285D02*
X102205628Y-53921285D01*
X102205628Y-54264142D02*
X102291342Y-54092714D01*
X102377057Y-54007000D01*
X102548485Y-53921285D01*
X102719914Y-53921285D01*
X103319914Y-54949857D02*
X103405628Y-55035571D01*
X103319914Y-55121285D01*
X103234200Y-55035571D01*
X103319914Y-54949857D01*
X103319914Y-55121285D01*
X103319914Y-54007000D02*
X103405628Y-54092714D01*
X103319914Y-54178428D01*
X103234200Y-54092714D01*
X103319914Y-54007000D01*
X103319914Y-54178428D01*
X106919914Y-55121285D02*
X106919914Y-53321285D01*
X107948485Y-55121285D02*
X107177057Y-54092714D01*
X107948485Y-53321285D02*
X106919914Y-54349857D01*
X109405628Y-55035571D02*
X109234200Y-55121285D01*
X108891342Y-55121285D01*
X108719914Y-55035571D01*
X108634200Y-54864142D01*
X108634200Y-54178428D01*
X108719914Y-54007000D01*
X108891342Y-53921285D01*
X109234200Y-53921285D01*
X109405628Y-54007000D01*
X109491342Y-54178428D01*
X109491342Y-54349857D01*
X108634200Y-54521285D01*
X110091342Y-53921285D02*
X110519914Y-55121285D01*
X110948485Y-53921285D01*
X111634200Y-55121285D02*
X111634200Y-53921285D01*
X111634200Y-53321285D02*
X111548485Y-53407000D01*
X111634200Y-53492714D01*
X111719914Y-53407000D01*
X111634200Y-53321285D01*
X111634200Y-53492714D01*
X112491342Y-53921285D02*
X112491342Y-55121285D01*
X112491342Y-54092714D02*
X112577057Y-54007000D01*
X112748485Y-53921285D01*
X113005628Y-53921285D01*
X113177057Y-54007000D01*
X113262771Y-54178428D01*
X113262771Y-55121285D01*
X116091342Y-54178428D02*
X116348485Y-54264142D01*
X116434200Y-54349857D01*
X116519914Y-54521285D01*
X116519914Y-54778428D01*
X116434200Y-54949857D01*
X116348485Y-55035571D01*
X116177057Y-55121285D01*
X115491342Y-55121285D01*
X115491342Y-53321285D01*
X116091342Y-53321285D01*
X116262771Y-53407000D01*
X116348485Y-53492714D01*
X116434200Y-53664142D01*
X116434200Y-53835571D01*
X116348485Y-54007000D01*
X116262771Y-54092714D01*
X116091342Y-54178428D01*
X115491342Y-54178428D01*
X117291342Y-55121285D02*
X117291342Y-53921285D01*
X117291342Y-53321285D02*
X117205628Y-53407000D01*
X117291342Y-53492714D01*
X117377057Y-53407000D01*
X117291342Y-53321285D01*
X117291342Y-53492714D01*
X118148485Y-55121285D02*
X118148485Y-53321285D01*
X118148485Y-54007000D02*
X118319914Y-53921285D01*
X118662771Y-53921285D01*
X118834200Y-54007000D01*
X118919914Y-54092714D01*
X119005628Y-54264142D01*
X119005628Y-54778428D01*
X118919914Y-54949857D01*
X118834200Y-55035571D01*
X118662771Y-55121285D01*
X118319914Y-55121285D01*
X118148485Y-55035571D01*
X119777057Y-55121285D02*
X119777057Y-53321285D01*
X119777057Y-54007000D02*
X119948485Y-53921285D01*
X120291342Y-53921285D01*
X120462771Y-54007000D01*
X120548485Y-54092714D01*
X120634200Y-54264142D01*
X120634200Y-54778428D01*
X120548485Y-54949857D01*
X120462771Y-55035571D01*
X120291342Y-55121285D01*
X119948485Y-55121285D01*
X119777057Y-55035571D01*
X121234200Y-53921285D02*
X121662771Y-55121285D01*
X122091342Y-53921285D02*
X121662771Y-55121285D01*
X121491342Y-55549857D01*
X121405628Y-55635571D01*
X121234200Y-55721285D01*
D15*
X55500000Y56000000D02*
X60000000Y56000000D01*
X8500000Y56000000D02*
X8500000Y48500000D01*
X8500000Y48500000D02*
G75*
G03*
X15500000Y48500000I3500000J0D01*
G01*
X4000000Y56000000D02*
X8500000Y56000000D01*
X3000000Y20500001D02*
G75*
G03*
X4000000Y21500001I1J999999D01*
G01*
X60000000Y56000000D02*
X60000000Y21500001D01*
X64000000Y20500000D02*
X61000000Y20500000D01*
X64000000Y20500000D02*
X64000000Y4500000D01*
X25000000Y15000000D02*
X39000000Y15000000D01*
X55500000Y48500000D02*
X55500000Y56000000D01*
X42999999Y20500001D02*
G75*
G03*
X43999999Y21500001I1J999999D01*
G01*
X44000000Y56000000D02*
X48500000Y56000000D01*
X20000000Y21500001D02*
G75*
G03*
X21000000Y20500001I999999J-1D01*
G01*
X39000000Y15000000D02*
G75*
G03*
X40000000Y16000000I1J999999D01*
G01*
X24000000Y20500000D02*
X24000000Y16000000D01*
X40000000Y16000000D02*
X40000000Y20500000D01*
X0Y20500000D02*
X0Y4500000D01*
X43999999Y21500001D02*
X44000000Y56000000D01*
X15500000Y56000000D02*
X20000000Y56000000D01*
X4000000Y56000000D02*
X4000000Y21500001D01*
X15500000Y48500000D02*
X15500000Y56000000D01*
X20000000Y56000000D02*
X20000000Y21500001D01*
X60000000Y21500001D02*
G75*
G03*
X61000000Y20500001I999999J-1D01*
G01*
X3000000Y20500000D02*
X0Y20500000D01*
X24000000Y16000000D02*
G75*
G03*
X25000000Y15000000I999999J-1D01*
G01*
X59500000Y0D02*
X4500000Y0D01*
X59500000Y0D02*
G75*
G03*
X64000000Y4500000I2J4499998D01*
G01*
X48500000Y56000000D02*
X48500000Y48500000D01*
X0Y4500000D02*
G75*
G03*
X4500000Y0I4499998J-2D01*
G01*
X24000000Y20500000D02*
X21000000Y20500000D01*
X48500000Y48500000D02*
G75*
G03*
X55500000Y48500000I3500000J0D01*
G01*
X42999999Y20500001D02*
X40000000Y20500000D01*
D16*
X-18536905Y97431548D02*
X-19727381Y97431548D01*
X-19414881Y99931548D01*
X-16632143Y97431548D02*
X-16468453Y98741072D01*
X-16557739Y98979167D01*
X-16780953Y99098215D01*
X-17257143Y99098215D01*
X-17510120Y98979167D01*
X-16617262Y97550596D02*
X-16870239Y97431548D01*
X-17465477Y97431548D01*
X-17688691Y97550596D01*
X-17777977Y97788691D01*
X-17748215Y98026786D01*
X-17599405Y98264881D01*
X-17346429Y98383929D01*
X-16751191Y98383929D01*
X-16498215Y98502977D01*
X-15471429Y99098215D02*
X-15084524Y97431548D01*
X-14280953Y99098215D02*
X-15084524Y97431548D01*
X-15397024Y96836310D01*
X-15530953Y96717262D01*
X-15783929Y96598215D01*
X-12569643Y97550596D02*
X-12822620Y97431548D01*
X-13298810Y97431548D01*
X-13522024Y97550596D01*
X-13611310Y97788691D01*
X-13492262Y98741072D01*
X-13343453Y98979167D01*
X-13090477Y99098215D01*
X-12614286Y99098215D01*
X-12391072Y98979167D01*
X-12301786Y98741072D01*
X-12331548Y98502977D01*
X-13551786Y98264881D01*
X-11394048Y97431548D02*
X-11185715Y99098215D01*
X-11245239Y98622024D02*
X-11096429Y98860120D01*
X-10962500Y98979167D01*
X-10709524Y99098215D01*
X-10471429Y99098215D01*
X-7941667Y97431548D02*
X-7629167Y99931548D01*
X-6513096Y97431548D01*
X-6200596Y99931548D01*
X-4251191Y97431548D02*
X-4087500Y98741072D01*
X-4176786Y98979167D01*
X-4400000Y99098215D01*
X-4876191Y99098215D01*
X-5129167Y98979167D01*
X-4236310Y97550596D02*
X-4489286Y97431548D01*
X-5084524Y97431548D01*
X-5307739Y97550596D01*
X-5397024Y97788691D01*
X-5367262Y98026786D01*
X-5218453Y98264881D01*
X-4965477Y98383929D01*
X-4370239Y98383929D01*
X-4117262Y98502977D01*
X-3060715Y97431548D02*
X-2852381Y99098215D01*
X-2882143Y98860120D02*
X-2748215Y98979167D01*
X-2495239Y99098215D01*
X-2138096Y99098215D01*
X-1914881Y98979167D01*
X-1825596Y98741072D01*
X-1989286Y97431548D01*
X-1825596Y98741072D02*
X-1676786Y98979167D01*
X-1423810Y99098215D01*
X-1066667Y99098215D01*
X-843453Y98979167D01*
X-754167Y98741072D01*
X-917858Y97431548D01*
X1239880Y97550596D02*
X986904Y97431548D01*
X510714Y97431548D01*
X287500Y97550596D01*
X198214Y97788691D01*
X317261Y98741072D01*
X466071Y98979167D01*
X719047Y99098215D01*
X1195238Y99098215D01*
X1418452Y98979167D01*
X1507738Y98741072D01*
X1477976Y98502977D01*
X257738Y98264881D01*
X2445238Y97669643D02*
X2549404Y97550596D01*
X2415476Y97431548D01*
X2311309Y97550596D01*
X2445238Y97669643D01*
X2415476Y97431548D01*
X2608928Y98979167D02*
X2713095Y98860120D01*
X2579166Y98741072D01*
X2475000Y98860120D01*
X2608928Y98979167D01*
X2579166Y98741072D01*
X23650595Y98741072D02*
X23992857Y98622024D01*
X24097023Y98502977D01*
X24186309Y98264881D01*
X24141666Y97907739D01*
X23992857Y97669643D01*
X23858928Y97550596D01*
X23605952Y97431548D01*
X22653571Y97431548D01*
X22966071Y99931548D01*
X23799404Y99931548D01*
X24022619Y99812500D01*
X24126785Y99693453D01*
X24216071Y99455358D01*
X24186309Y99217262D01*
X24037499Y98979167D01*
X23903571Y98860120D01*
X23650595Y98741072D01*
X22817261Y98741072D01*
X25183333Y97669643D02*
X25287499Y97550596D01*
X25153571Y97431548D01*
X25049404Y97550596D01*
X25183333Y97669643D01*
X25153571Y97431548D01*
X26239880Y97550596D02*
X26582142Y97431548D01*
X27177380Y97431548D01*
X27430357Y97550596D01*
X27564285Y97669643D01*
X27713095Y97907739D01*
X27742857Y98145834D01*
X27653571Y98383929D01*
X27549404Y98502977D01*
X27326190Y98622024D01*
X26864880Y98741072D01*
X26641666Y98860120D01*
X26537499Y98979167D01*
X26448214Y99217262D01*
X26477976Y99455358D01*
X26626785Y99693453D01*
X26760714Y99812500D01*
X27013690Y99931548D01*
X27608928Y99931548D01*
X27951190Y99812500D01*
X28724999Y97431548D02*
X28933333Y99098215D01*
X29037499Y99931548D02*
X28903571Y99812500D01*
X29007738Y99693453D01*
X29141666Y99812500D01*
X29037499Y99931548D01*
X29007738Y99693453D01*
X30272619Y97431548D02*
X30049404Y97550596D01*
X29960119Y97788691D01*
X30227976Y99931548D01*
X31224999Y97431548D02*
X31537499Y99931548D01*
X31582142Y98383929D02*
X32177380Y97431548D01*
X32385714Y99098215D02*
X31314285Y98145834D01*
X33144642Y97550596D02*
X33486904Y97431548D01*
X34082142Y97431548D01*
X34335119Y97550596D01*
X34469047Y97669643D01*
X34617857Y97907739D01*
X34647619Y98145834D01*
X34558333Y98383929D01*
X34454166Y98502977D01*
X34230952Y98622024D01*
X33769642Y98741072D01*
X33546428Y98860120D01*
X33442261Y98979167D01*
X33352976Y99217262D01*
X33382738Y99455358D01*
X33531547Y99693453D01*
X33665476Y99812500D01*
X33918452Y99931548D01*
X34513690Y99931548D01*
X34855952Y99812500D01*
X-18536905Y93406548D02*
X-19727381Y93406548D01*
X-19414881Y95906548D01*
X-16632143Y93406548D02*
X-16468453Y94716072D01*
X-16557739Y94954167D01*
X-16780953Y95073215D01*
X-17257143Y95073215D01*
X-17510120Y94954167D01*
X-16617262Y93525596D02*
X-16870239Y93406548D01*
X-17465477Y93406548D01*
X-17688691Y93525596D01*
X-17777977Y93763691D01*
X-17748215Y94001786D01*
X-17599405Y94239881D01*
X-17346429Y94358929D01*
X-16751191Y94358929D01*
X-16498215Y94477977D01*
X-15471429Y95073215D02*
X-15084524Y93406548D01*
X-14280953Y95073215D02*
X-15084524Y93406548D01*
X-15397024Y92811310D01*
X-15530953Y92692262D01*
X-15783929Y92573215D01*
X-12569643Y93525596D02*
X-12822620Y93406548D01*
X-13298810Y93406548D01*
X-13522024Y93525596D01*
X-13611310Y93763691D01*
X-13492262Y94716072D01*
X-13343453Y94954167D01*
X-13090477Y95073215D01*
X-12614286Y95073215D01*
X-12391072Y94954167D01*
X-12301786Y94716072D01*
X-12331548Y94477977D01*
X-13551786Y94239881D01*
X-11394048Y93406548D02*
X-11185715Y95073215D01*
X-11245239Y94597024D02*
X-11096429Y94835120D01*
X-10962500Y94954167D01*
X-10709524Y95073215D01*
X-10471429Y95073215D01*
X-7941667Y93406548D02*
X-7629167Y95906548D01*
X-7033929Y95906548D01*
X-6691667Y95787500D01*
X-6483334Y95549405D01*
X-6394048Y95311310D01*
X-6334524Y94835120D01*
X-6379167Y94477977D01*
X-6557739Y94001786D01*
X-6706548Y93763691D01*
X-6974405Y93525596D01*
X-7346429Y93406548D01*
X-7941667Y93406548D01*
X-4474405Y93525596D02*
X-4727381Y93406548D01*
X-5203572Y93406548D01*
X-5426786Y93525596D01*
X-5516072Y93763691D01*
X-5397024Y94716072D01*
X-5248215Y94954167D01*
X-4995239Y95073215D01*
X-4519048Y95073215D01*
X-4295834Y94954167D01*
X-4206548Y94716072D01*
X-4236310Y94477977D01*
X-5456548Y94239881D01*
X-3402977Y93525596D02*
X-3179762Y93406548D01*
X-2703572Y93406548D01*
X-2450596Y93525596D01*
X-2301786Y93763691D01*
X-2286905Y93882739D01*
X-2376191Y94120834D01*
X-2599405Y94239881D01*
X-2956548Y94239881D01*
X-3179762Y94358929D01*
X-3269048Y94597024D01*
X-3254167Y94716072D01*
X-3105358Y94954167D01*
X-2852381Y95073215D01*
X-2495239Y95073215D01*
X-2272024Y94954167D01*
X-188691Y93525596D02*
X-441667Y93406548D01*
X-917858Y93406548D01*
X-1141072Y93525596D01*
X-1245239Y93644643D01*
X-1334524Y93882739D01*
X-1245239Y94597024D01*
X-1096429Y94835120D01*
X-962500Y94954167D01*
X-709524Y95073215D01*
X-233334Y95073215D01*
X-10120Y94954167D01*
X867857Y93406548D02*
X1076190Y95073215D01*
X1016666Y94597024D02*
X1165476Y94835120D01*
X1299404Y94954167D01*
X1552380Y95073215D01*
X1790476Y95073215D01*
X2415476Y93406548D02*
X2623809Y95073215D01*
X2727976Y95906548D02*
X2594047Y95787500D01*
X2698214Y95668453D01*
X2832142Y95787500D01*
X2727976Y95906548D01*
X2698214Y95668453D01*
X3814285Y95073215D02*
X3501785Y92573215D01*
X3799404Y94954167D02*
X4052380Y95073215D01*
X4528571Y95073215D01*
X4751785Y94954167D01*
X4855952Y94835120D01*
X4945238Y94597024D01*
X4855952Y93882739D01*
X4707142Y93644643D01*
X4573214Y93525596D01*
X4320238Y93406548D01*
X3844047Y93406548D01*
X3620833Y93525596D01*
X5719047Y95073215D02*
X6671428Y95073215D01*
X6180357Y95906548D02*
X5912500Y93763691D01*
X6001785Y93525596D01*
X6225000Y93406548D01*
X6463095Y93406548D01*
X7296428Y93406548D02*
X7504761Y95073215D01*
X7608928Y95906548D02*
X7475000Y95787500D01*
X7579166Y95668453D01*
X7713095Y95787500D01*
X7608928Y95906548D01*
X7579166Y95668453D01*
X8844047Y93406548D02*
X8620833Y93525596D01*
X8516666Y93644643D01*
X8427380Y93882739D01*
X8516666Y94597024D01*
X8665476Y94835120D01*
X8799404Y94954167D01*
X9052380Y95073215D01*
X9409523Y95073215D01*
X9632738Y94954167D01*
X9736904Y94835120D01*
X9826190Y94597024D01*
X9736904Y93882739D01*
X9588095Y93644643D01*
X9454166Y93525596D01*
X9201190Y93406548D01*
X8844047Y93406548D01*
X10957142Y95073215D02*
X10748809Y93406548D01*
X10927380Y94835120D02*
X11061309Y94954167D01*
X11314285Y95073215D01*
X11671428Y95073215D01*
X11894642Y94954167D01*
X11983928Y94716072D01*
X11820238Y93406548D01*
X13040476Y93644643D02*
X13144642Y93525596D01*
X13010714Y93406548D01*
X12906547Y93525596D01*
X13040476Y93644643D01*
X13010714Y93406548D01*
X13204166Y94954167D02*
X13308333Y94835120D01*
X13174404Y94716072D01*
X13070238Y94835120D01*
X13204166Y94954167D01*
X13174404Y94716072D01*
X22817261Y94716072D02*
X23159523Y94597024D01*
X23263690Y94477977D01*
X23352976Y94239881D01*
X23308333Y93882739D01*
X23159523Y93644643D01*
X23025595Y93525596D01*
X22772619Y93406548D01*
X21820238Y93406548D01*
X22132738Y95906548D01*
X22966071Y95906548D01*
X23189285Y95787500D01*
X23293452Y95668453D01*
X23382738Y95430358D01*
X23352976Y95192262D01*
X23204166Y94954167D01*
X23070238Y94835120D01*
X22817261Y94716072D01*
X21983928Y94716072D01*
X25391666Y93406548D02*
X25555357Y94716072D01*
X25466071Y94954167D01*
X25242857Y95073215D01*
X24766666Y95073215D01*
X24513690Y94954167D01*
X25406547Y93525596D02*
X25153571Y93406548D01*
X24558333Y93406548D01*
X24335119Y93525596D01*
X24245833Y93763691D01*
X24275595Y94001786D01*
X24424404Y94239881D01*
X24677380Y94358929D01*
X25272619Y94358929D01*
X25525595Y94477977D01*
X27668452Y93525596D02*
X27415476Y93406548D01*
X26939285Y93406548D01*
X26716071Y93525596D01*
X26611904Y93644643D01*
X26522619Y93882739D01*
X26611904Y94597024D01*
X26760714Y94835120D01*
X26894642Y94954167D01*
X27147619Y95073215D01*
X27623809Y95073215D01*
X27847023Y94954167D01*
X28725000Y93406548D02*
X29037500Y95906548D01*
X29082142Y94358929D02*
X29677380Y93406548D01*
X29885714Y95073215D02*
X28814285Y94120834D01*
X32549404Y93525596D02*
X32891666Y93406548D01*
X33486904Y93406548D01*
X33739880Y93525596D01*
X33873809Y93644643D01*
X34022619Y93882739D01*
X34052380Y94120834D01*
X33963095Y94358929D01*
X33858928Y94477977D01*
X33635714Y94597024D01*
X33174404Y94716072D01*
X32951190Y94835120D01*
X32847023Y94954167D01*
X32757738Y95192262D01*
X32787499Y95430358D01*
X32936309Y95668453D01*
X33070238Y95787500D01*
X33323214Y95906548D01*
X33918452Y95906548D01*
X34260714Y95787500D01*
X35034523Y93406548D02*
X35242857Y95073215D01*
X35347023Y95906548D02*
X35213095Y95787500D01*
X35317261Y95668453D01*
X35451190Y95787500D01*
X35347023Y95906548D01*
X35317261Y95668453D01*
X36582142Y93406548D02*
X36358928Y93525596D01*
X36269642Y93763691D01*
X36537500Y95906548D01*
X37534523Y93406548D02*
X37847023Y95906548D01*
X37891666Y94358929D02*
X38486904Y93406548D01*
X38695238Y95073215D02*
X37623809Y94120834D01*
X39454166Y93525596D02*
X39677380Y93406548D01*
X40153571Y93406548D01*
X40406547Y93525596D01*
X40555357Y93763691D01*
X40570238Y93882739D01*
X40480952Y94120834D01*
X40257738Y94239881D01*
X39900595Y94239881D01*
X39677380Y94358929D01*
X39588095Y94597024D01*
X39602976Y94716072D01*
X39751785Y94954167D01*
X40004761Y95073215D01*
X40361904Y95073215D01*
X40585119Y94954167D01*
X42668452Y93525596D02*
X42415476Y93406548D01*
X41939285Y93406548D01*
X41716071Y93525596D01*
X41611904Y93644643D01*
X41522619Y93882739D01*
X41611904Y94597024D01*
X41760714Y94835120D01*
X41894642Y94954167D01*
X42147619Y95073215D01*
X42623809Y95073215D01*
X42847023Y94954167D01*
X43724999Y93406548D02*
X43933333Y95073215D01*
X43873809Y94597024D02*
X44022619Y94835120D01*
X44156547Y94954167D01*
X44409523Y95073215D01*
X44647619Y95073215D01*
X46239880Y93525596D02*
X45986904Y93406548D01*
X45510714Y93406548D01*
X45287499Y93525596D01*
X45198214Y93763691D01*
X45317261Y94716072D01*
X45466071Y94954167D01*
X45719047Y95073215D01*
X46195238Y95073215D01*
X46418452Y94954167D01*
X46507738Y94716072D01*
X46477976Y94477977D01*
X45257738Y94239881D01*
X48382738Y93525596D02*
X48129761Y93406548D01*
X47653571Y93406548D01*
X47430357Y93525596D01*
X47341071Y93763691D01*
X47460119Y94716072D01*
X47608928Y94954167D01*
X47861904Y95073215D01*
X48338095Y95073215D01*
X48561309Y94954167D01*
X48650595Y94716072D01*
X48620833Y94477977D01*
X47400595Y94239881D01*
X49766666Y95073215D02*
X49558333Y93406548D01*
X49736904Y94835120D02*
X49870833Y94954167D01*
X50123809Y95073215D01*
X50480952Y95073215D01*
X50704166Y94954167D01*
X50793452Y94716072D01*
X50629761Y93406548D01*
M02*
